<svg xmlns="http://www.w3.org/2000/svg" width="100.524" height="101.038" viewBox="0 0 26.597 26.733"  xmlns:v="https://vecta.io/nano"><path d="M4.022 1.64H11.9v.397H4.022zM1.64 4.075h.397v4.55H1.64zm.397-2.037h1.588V1.64H1.64v2.037h.397zm1.984 0h-.397v1.64H2.037v.397h1.984zM.397 4.075h1.27v-.397H.026v4.948h.397v-4.55zM4.022.397H11.9V0H3.625v1.64h.397zm-2.38 3.28h.397v.397H1.64zM3.625 1.64h.397v.397h-.397zM1.64 8.625h.397v6.82H1.64zm-1.64 0h.397v6.82H0zm3.997 16.03h7.983v.397H3.997zm-2.357-9.21h.397l.082 7.33h-.397zm.478 9.21v-1.482h-.397v1.88H3.6v-.397zm1.88 1.667v-1.27H3.6v1.64l8.38.04v-.437zm-3.52-3.545l-.082-7.33H0l.082 7.728h1.64v-.397zm1.64 0v.397H3.6v1.482h.397v-1.88zm-.397 0h.397v.397h-.397zm1.88 1.88h.397v.397H3.6zm8.38 0h4.205v.397H11.98zm0 1.64l4.074.026v.397l-4.074.013zm4.205-1.64h6.443v.397h-6.443zm8.375 0h-1.535v.397h1.93v-1.88h-.397zm-.082-9.21h.397l.082 7.33h-.397zm1.748 7.33h-1.27v.397h1.64l-.082-7.728h-.397zm-3.598 3.545h-6.574v.397h6.97v-1.667h-.397zm0-1.667h.397v-1.482h1.535v-.397l-1.93.03v1.85c.186 0 .41.074.356.034 0 0 .04.152.04.363h-.397v-2.247zm1.93-1.88h.397v.397h-.397zm-.082-14.152h.397v6.82h-.397zm1.667 0h.397v6.82h-.397zm-1.667-6.588v1.535h.397V1.64h-1.93v.397zm0 1.93h.397v4.657h-.397zM16.103 1.64h6.47v.397h-6.47zm8.375 2.328v-.397h-1.535V2.037h-.397v1.93zM22.546.397v1.27h.397V.026h-6.97v.397h6.574zm3.598 3.572v4.657h.397V3.572H24.9v.397zm-1.667-.397h.397v.397h-.397zm-1.93-1.93h.397v.397h-.397zm-10.648 0h4.205v.397H11.9zm0-1.64l4.074.026v.397L11.9.397z" fill="#303562"/></svg>