<svg xmlns="http://www.w3.org/2000/svg" height="512" width="512"  xmlns:v="https://vecta.io/nano"><path d="M332.466 512H109.148c-38.608 0-69.906-31.298-69.906-69.906V69.908C39.242 31.3 70.54.002 109.148.002h223.318c38.608 0 69.906 31.298 69.906 69.906v372.186c.001 38.608-31.297 69.906-69.906 69.906z" fill="#30579d"/><path d="M126.96 512h-17.81c-38.61 0-69.908-31.297-69.908-69.908V69.908C39.242 31.297 70.54 0 109.15 0h17.812c-38.612 0-69.91 31.297-69.91 69.908V442.09c0 38.61 31.297 69.908 69.908 69.908z" fill="#26457d"/><path d="M109.148 481.095c-21.505 0-39-17.496-39-39V69.908c0-21.505 17.496-39 39-39h223.318c21.505 0 39 17.496 39 39v372.186c0 21.505-17.496 39-39 39z" fill="#e28086"/><path d="M472.758 143.865V291.87c0 15.947-5.367 30.638-14.402 42.37-3.152 4.1-6.768 7.85-10.745 11.147-12.053 10.024-27.537 16.04-44.42 16.04h-44.432l-41.815 41.805c-9.972 9.982-26.156 9.982-36.14 0L239 361.43h-44.432a69.2 69.2 0 0 1-44.421-16.04c-3.987-3.297-7.592-7.036-10.745-11.147C130.367 322.51 125 307.818 125 291.87V143.865a69.25 69.25 0 0 1 14.392-42.371c3.152-4.1 6.758-7.85 10.745-11.157a69.29 69.29 0 0 1 44.432-16.04H403.2c16.885 0 32.38 6.026 44.432 16.04a69.73 69.73 0 0 1 10.745 11.157c9.024 11.733 14.39 26.424 14.39 42.37z" fill="#f6f9f9"/><g fill="#dae7ef"><path d="M150.323 143.863V291.87c0 38.415 31.142 69.557 69.558 69.557h-25.31c-38.426 0-69.568-31.142-69.568-69.557V143.863c0-38.425 31.142-69.568 69.568-69.568h25.312c-38.415 0-69.558 31.142-69.558 69.568zm161.213 263.5c-9.756 5.573-22.396 4.203-30.73-4.13l-41.804-41.805h25.322l41.805 41.805a25.45 25.45 0 0 0 5.407 4.131z"/><path d="M351.928 217.873l106.428 116.37c-3.152 4.1-6.768 7.85-10.745 11.147L341.46 229.32l-12.784 13.97a40.43 40.43 0 0 1-29.783 13.124c-11.32 0-22.2-4.78-29.824-13.124l-12.774-13.97-106.15 116.07c-3.987-3.297-7.592-7.036-10.745-11.147l106.42-116.37-106.428-116.38c3.152-4.1 6.758-7.85 10.745-11.157l130.34 142.526c2.4 2.617 5.223 4.636 8.344 6.006 3.11 1.37 6.52 2.09 10.065 2.09 7.088 0 13.62-2.874 18.4-8.097L447.622 90.337a69.73 69.73 0 0 1 10.745 11.157z"/></g></svg>