<svg xmlns="http://www.w3.org/2000/svg" height="231.4" preserveAspectRatio="xMidYMid meet" viewBox="-1.4 0 946.5 231.4" width="946.5" zoomAndPan="magnify"  xmlns:v="https://vecta.io/nano"><defs><clipPath id="A"><path d="M10 0h935.08v226H10z"/></clipPath><clipPath id="B"><path d="M277 43h173v188.42H277z"/></clipPath></defs><g clip-path="url(#A)"><path d="M942.97 120.56c-5.18 2.6-12.37 2.85-19.33 3.1-3.38.13-6.57.24-8.98.64-19.46 3.17-39.02 5.25-58.57 6.58-2.64 3.18-5.64 6.3-7.2 10.28-3.48 8.88-1.6 18.46-6 27.53-11.3 23.3-37.53 35.75-60.92 43.22-14.8 4.73-30 8.22-45.1 11.8-1.2.28-14.16 2.14-14.16 2.14s7.8-18.8 24.07-33.98c17.4-16.27 32.77-29.63 54.6-39.44 13.9-6.25 31.86-8.7 44.33-18.3h-.02a82.21 82.21 0 0 1-12.47-2.03c-33.56 1.36-67.02.87-99.92.26-.02.9-.18 1.8-.35 2.68-.85 4.2-2.4 8.25-4.1 12.15-4.73 10.83-12.25 20.57-20.47 28.97-13.74 14.04-33.9 22.06-52.14 26.43-12.8 3.07-58.93 11-58.93 11l11.2-17.12 1.2-1.7c13.4-18.94 28.16-39.4 50.97-47.5 21.94-7.77 48-1.78 67.67-15l-2.83-.05-54.9-.76c-11.83-.04-23.7-.01-35.6.07-12.75 13.8-29.7 20.33-46.17 26.65-8.2 3.15-16.7 6.4-24.44 10.52-15.4 8.18-27.08 17.68-34.74 28.24-.85 1.16-1.62 3.08-2.36 4.93-.9 2.26-1.85 4.6-3.22 6.33-.75.95-1.86 1.44-3 1.44-.82 0-1.66-.27-2.36-.83-1.65-1.3-1.93-3.7-.62-5.35.68-.85 1.4-2.67 2.12-4.43.9-2.28 1.86-4.64 3.26-6.57 8.35-11.5 20.9-21.76 37.33-30.5 8.15-4.33 16.86-7.67 25.3-10.9 13.84-5.3 27.07-10.4 37.8-19.43l-112.26 2.02-51.07 1.1c-30.14 3.8-60.33 14.7-87.6 31.75-6.52 4.08-14.9 9.64-21.85 16.54l-2.14 2.32c-.25.33-.55.6-.9.85a3.87 3.87 0 0 1-2.1.63c-1.24 0-2.45-.6-3.18-1.7-1.82-2.76.3-4.85 2.96-7.5 7.5-7.43 16.32-13.3 23.18-17.6 16.88-10.55 34.85-18.83 53.26-24.63l-47.04.43c-39.35 0-79.1-2.36-118.22-5.24 1.24 2.66 2.2 5.52 2.24 5.82 1.05 8.34-2.16 16.23-6.78 23.03-18.6 27.4-51.9 41.83-81.3 54.33l-26.74 11.82c-.3-.32 12.4-20.76 17.6-29.52 14.8-24.88 32.1-60.72 62.92-67.93 0 0-.01-.01-.02-.01l-38.5-3-29.46-2.1c-9.05 8.53-11.82 29.5-18.1 37.7-13.43 17.53-36.73 24.76-56.82 31.43-6.914 2.3-13.914 4.37-20.73 6.96-.82.3-5.676 3-6.484 2.5-1.496-.96 5.183-17.45 6.29-19.9 10.086-22.36 20.797-35.56 41.615-47.12l48.42-11.96-36.6-2.47c-13.46 10.87-32.906 12.42-50.11 13.78-5.125.4-9.97.8-14.407 1.4-7.16.97-14.61 2.66-22.78 5.15-1.156.36-2.488.9-3.898 1.5-2.84 1.18-5.778 2.4-8.672 2.62-.098 0-.195.01-.29.01-1.977 0-3.65-1.53-3.797-3.53-.156-2.1 1.418-3.93 3.52-4.08 1.668-.13 4.032-1.1 6.317-2.06 1.52-.63 3.086-1.27 4.594-1.74 8.566-2.6 16.4-4.38 23.98-5.4 4.648-.64 9.594-1.03 14.828-1.45 12.63-1 26.54-2.12 37.575-7.08l-9.005-.64c-1.703.5-2.937-.2-3.476-.6-1.344-1.02-1.86-2.82-1.266-4.4.23-.6.864-1.76 2.453-2.32 1.028-.6 2.243-.65 3.293-.24l37.61 2.58c-7.45-3-14.62-7.06-21.06-11.52-15.113-10.46-26.668-24.55-37.535-39.163-.973-1.312-8.94-15.72-8.94-15.72s19.843 2.125 26.386 3.64a92.45 92.45 0 0 1 8.985 2.57c19.765 6.742 38.555 20.258 50.975 36.9 5.95 7.98 9.86 17.03 14.83 25.57l22.33 1.6 17.07 1.3c-3.65-1.7-6.72-3.23-8.15-4.14-16.87-10.73-27.23-26.905-37.24-42.55-10.04-15.687-19.53-30.504-35-39.96-1.8-1.097-2.36-3.44-1.26-5.238a3.81 3.81 0 0 1 5.24-1.266c16.97 10.37 27.37 26.63 37.44 42.356 10 15.633 19.46 30.402 34.9 40.23 3 1.9 17.1 8.18 26.8 12.35l40.7 3.07c-29.2-7-52.7-36.54-60.82-63.294-1.44-4.746-3.06-36.554-3.06-36.554l5.94 8.57c4.17 5.87 9.5 10.547 15.63 14.258 10.64 6.422 22.5 10.476 33.1 16.968C278.4 75.996 291.7 102.14 294.9 125.5c28.2 1.7 56.5 2.82 84.54 2.7l80.65-1.07 4.3-.5c.74-.08 1.44.07 2.06.37l24.9-.53c-.32-.1-.64-.24-.96-.36-15.1-5.88-32.95-13.54-53.53-30.008a3.82 3.82 0 0 1-.6-5.356c1.32-1.64 3.72-1.9 5.36-.594 19.75 15.798 36.3 22.918 51.54 28.858 11.85 4.62 38.46 6.3 38.73 6.32.34.03.67.1.98.2l72.45-1.34c-23.27-8.22-44.2-27.942-54.75-50.286-7.36-15.598-9.66-31.53-9.66-31.53s6.7 6.472 9.32 8.418c6.9 5.172 14.5 9.13 22.53 12.293 23.95 9.445 50.86 13.886 70.45 31.844 5.95 5.452 11.28 11.902 14.37 19.422 1.1 2.62 1.97 5.46 2.25 8.3.03.3-.01.7-.07 1.16h10.93l55 .77 59.28.76c-2.03-1.36-4.03-2.8-6.13-4-7.8-4.44-18.44-5.04-27.12-5.15-33.93-.4-56.5-7.86-79.35-34L659.1 67.023c-.44-.48-4.1-3.554-3.75-4.29.6-1.273 7.87-.34 8.92-.324 9.55.14 19.08.652 28.52 2.192 25.02 4.086 49.33 15.76 68.45 32.472 9.38 8.206 16.92 21.416 27.84 28.266l26.06-.3c-18.8-10.55-30.52-28.45-41.97-45.942-10.7-16.348-20.8-31.79-36.3-41.614-12.7-8.062-28.9-10.046-41.6-10.875a3.82 3.82 0 0 1-3.56-4.05c.14-2.102 1.96-3.704 4.05-3.555 13.6.887 31.02 3.055 45.18 12.047 16.88 10.707 27.9 27.566 38.6 43.875 14.28 21.828 27.88 42.594 54.42 49.514 22.84-.95 45.7-2.76 68.4-5.98-1.13.01-2.08-.02-2.73-.1-13.08-1.72-24.53-8.22-34.2-17-22.34-20.348-34.82-49.6-50.1-75.113-1.25-2.07-16.94-25.43-16.8-26.18.08-.45 4.73 2.332 4.98 2.476l9.2 5.512 29 17.55c27.5 17.332 57.48 37.223 70.9 68.164 3.15 7.26 4.2 15.02 6.58 22.48 1.34-.08 2.72-.13 4.15-.18 5.85-.2 12.5-.45 16.2-2.3 1.88-.95 4.17-.18 5.12 1.7.93 1.88.17 4.17-1.7 5.1" fill="#303562"/></g><path d="M527.64 199.76c-5.33-3.8-13.88-1-19.1 6.26s-5.1 16.27.22 20.1c5.32 3.8 13.87 1 19.08-6.26 5.2-7.28 5.1-16.28-.2-20.1zM694.1 12.36c-6.94 0-12.57 5.063-12.57 11.297s5.63 11.297 12.57 11.297c6.95 0 12.58-5.062 12.58-11.297S701.04 12.36 694.1 12.36zM11.82 128.53c-8.047 2.1-13.2 9.1-11.5 15.62s9.617 10.1 17.664 8 13.203-9.1 11.504-15.62c-1.703-6.52-9.617-10.1-17.668-8zm126.32-107.3c4.33 6.9 3.16 15.44-2.6 19.047-5.76 3.61-13.95.925-18.27-5.98-4.33-6.9-3.16-15.44 2.6-19.047 5.75-3.605 13.94-.926 18.26 5.98" fill="#b4203d" fill-rule="evenodd"/><g clip-path="url(#B)"><path d="M448.92 94.562l-1.07-9.687c-1.47-9.64-3.6-19.344-6.76-28.582-.64-1.906-2-7.816-4.7-8.043-3.25-.27-3.73 10.2-3.76 12.227-.01.136.1 1.988-.2 1.945-1.97-.31-7.23-18.727-13.67-18.65-6.4.08-2.82 12.1-1.75 15.215.14.438 2 4.528 1.06 4.746-2.88.672-13.52-12.672-20.52-10.093-7.28 2.683 10.36 19.234 10.35 19.51-.03.45-5.03-1.222-5.4-1.324-2.4-.683-12.56-4.02-13.8-.1-1.7 5.407 11.72 8.96 12.6 11.55.05.152-1.5-.023-1.55-.03l-4.28-.5c-2.75-.274-14.12-2.293-15.18 1.742-1.5 5.715 11.4 5.902 13 8.816 0 .004-2.88.282-4.54.512-1.8.25-10.6 1.23-8.44 4.867 3.07 5.215 13.3 6.375 18.5 7.245 15.6 2.58 35.14 2.97 49.38-5.55l.53-1.09c0 .582.3-1.14.3-1.723-.02-1.004-.03-2.012-.1-3.016zm-94.15 84.598c.18-.1-.37 1-.53 1.68-.33 1.4-.6 2.84-.9 4.25-.82 3.9-1.6 7.86-2.67 11.7-2.95 10.6-8.57 20.33-16.28 28.17-2.2 2.26-5.7 6.55-9.26 6.45-1.9-.06-2.74-1.88-3.23-3.48-1.24-4-.13-8.33 1.27-12.15.43-1.18 1.9-4.48 1.9-4.48s-2 2.92-2.64 3.75c-2.16 2.76-4.6 5.6-7.63 7.42-1.1.66-2.94 1.73-4.17.77-1.16-.9-.45-2.75-.04-3.84 1.12-2.95 3-5.52 4.9-8 .2-.26 2.6-2.97 2.42-3.22-.1-.12-1 .63-1.07.67-1.42 1.05-2.86 2.06-4.37 2.98-3.8 2.3-7.93 4.6-12.3 5.6-1.45.32-3.8.7-4.96-.56-1.24-1.36-.27-3.3.5-4.6 2.12-3.56 5.74-6.28 8.97-8.78 1.27-.98 2.24-2.43 2.24-2.43s-13.3 6-19.4 6.5c-1.87.16-5.9.52-6.85-1.72-.63-1.46.62-2.9 1.55-3.92 2.6-2.77 6.1-4.86 9.38-6.7 1.3-.72 2.62-1.4 3.94-2.08.44-.22-2 .2-2.78.3-3.67.42-7.63.14-11.18-.84-1.4-.38-3.23-.94-3.96-2.3-.9-1.7 1.8-3.1 2.93-3.65 3.1-1.52 12.27-3.95 12.27-3.95s-3.45-1.5-4.84-1.85c-3.2-.8-9.47-3.13-4.97-6.92 4.44-3.73 11.1-4.6 16.66-5.06 8.56-.73 17.05.58 25.52 1.6 5.05.6 10.14.86 15.18 1.53 4.24.58 9.24 2.87 13.57 2l.82 5.18" fill="#bea5bc" fill-rule="evenodd"/></g><path d="M446.9 101c-.03.03-.08.05-.12.05-.03 0-.07-.01-.1-.03l-.45-.36c-7.87-.912-24.12-3.232-31.97-4.354l-.5-.07-14.25-2-2.56-.394-3.9-.58c-.08-.01-.14-.085-.13-.17s.08-.145.17-.133c.98.12 2.47.355 3.92.582l2.56.4 14.73 2.075 31.47 4.294-.6-.5c-7.94-4.058-13.5-6.008-21.07-8.652l-5.75-2.03c-2.3-.82-6.25-2.114-10.07-3.364l-6.86-2.265c-.07-.028-.12-.113-.1-.196s.12-.117.2-.093l6.85 2.265 10.07 3.364 5.75 2.03c7.15 2.504 12.52 4.38 19.8 8.004l-3.78-3.02c-6.05-4.855-11.28-9.05-18.74-14.324-2.23-1.574-5.92-3.734-9.17-5.637l-4.47-2.648a.16.16 0 0 1-.05-.211c.04-.074.14-.098.2-.05 1.2.742 2.8 1.668 4.46 2.65 3.26 1.906 6.95 4.066 9.2 5.648 7.47 5.28 12.7 9.477 18.76 14.336l4.93 3.937.46.235c-5.8-8.078-20.76-27.31-27.14-35.465l-.4-.52c-.05-.066-.04-.16.03-.214.06-.047.16-.04.2.027l.4.516L445 98.215c-.87-1.56-1.3-3.012-1.8-4.62-.32-1.094-.66-2.227-1.17-3.528-1.68-4.27-3.27-8.652-4.8-12.894l-1.6-4.406c-.52-1.434-1.17-3.368-1.8-5.235l-1.64-4.816c-.03-.082.01-.168.1-.195s.17.01.2.09c.48 1.332 1.08 3.106 1.65 4.825l1.8 5.226 1.6 4.406 4.8 12.89c.52 1.313.86 2.45 1.2 3.55.66 2.22 1.23 4.137 3 6.445.05.067.04.157-.03.207v.01c.01 0 .01 0 .02.01.08.03.1.13.06.2v.01c.06.08.12.16.18.25.02.02.02.05.02.07.04.03.07.06.1.08.07.05.08.15.03.22zm-91.22 73.76l-1.04.6c.02-.04.02-.1 0-.13-.03-.05-.1-.07-.14-.07-.02 0-.05 0-.07.02h-.02c.15-.13.3-.25.44-.38l.83-.03zm2.8-3.22c-1.27.93-2.52 1.92-3.74 2.96-.15.01-.3.01-.46.03v-.05c-.01-.08-.08-.15-.16-.13l-10.8 1.2c-11.94 1.3-24.28 2.66-36.34 4.63l-11.02 1.9c-.03 0-.14.02-.28.04-2.66.36-2.88.5-2.9.7-.01.08.05.16.13.17.07.02.13-.02.16-.08.12-.08.7-.23 2.66-.5.16-.02.26-.04.3-.04l11.02-1.9c12.04-1.97 24.38-3.32 36.3-4.62l6.1-.67c-2.23.42-4.44.96-6.62 1.5l-1.83.45c-9.5 2.3-19.1 5.32-28.56 9l-9.07 3.6-4 1.62-4.14 1.7c-.08.03-.12.12-.1.2.04.08.12.1.2.08l4.14-1.7 4.02-1.6 9.06-3.6c9.45-3.68 19.05-6.7 28.53-9l1.82-.45c3.77-.92 7.64-1.87 11.46-2.14l-1.17 1.02c-4.8 2.62-9.73 5.07-14.52 7.45-6.53 3.24-13.28 6.6-19.7 10.37-1.02.6-2.16 1.23-3.36 1.88-3.1 1.7-6.32 3.45-8.53 5.4-.06.05-.07.15-.01.2.05.07.15.07.2.02 2.2-1.94 5.38-3.68 8.47-5.37a127.92 127.92 0 0 0 3.38-1.88c6.4-3.77 13.14-7.12 19.66-10.36l13.45-6.87a6.64 6.64 0 0 0-.28.26c-9.32 5.8-17.94 13.18-26.73 22.88l-7.35 8.32c-.06.06-.05.16.01.2.07.06.16.05.22-.02 2.14-2.56 5.15-5.88 7.34-8.3 8.37-9.23 16.57-16.36 25.38-22.02-6.82 6.6-12.8 14.47-18.42 22.13-1.05 1.43-2.46 3.57-3.83 5.63l-3.42 5.04c-.04.07-.03.17.04.22.03.02.06.02.1.02.05 0 .1-.02.12-.06.94-1.3 2.15-3.12 3.43-5.05l3.82-5.62c5.9-8.06 12.22-16.36 19.5-23.14a108.53 108.53 0 0 1 4.17-2.46c.04 0 .07-.02.1-.05l.97-.53c.07-.04.1-.13.06-.2-.04-.07-.14-.1-.2-.06l-1 .55c-.34 0-.67.01-1 .02a71.82 71.82 0 0 1 3.42-2.68c.07-.05.08-.15.03-.22s-.14-.08-.2-.03" fill="#303562"/><path d="M728.74 135.5c.18-.2.16-.53-.05-.7-.2-.18-.53-.16-.7.05-3.63 4.23-7.67 7.9-12 11.17-3.58 1.02-9.44 1.64-12.8 1.56-5.3-.1-11.5-.9-17.5-1.64-5.03-.62-9.77-1.22-14.07-1.46a.49.49 0 0 0-.53.47.51.51 0 0 0 .47.53c4.27.24 9 .83 14 1.46 6.03.75 12.27 1.53 17.6 1.64 2.76.05 7.16-.32 10.73-1.04-5.93 4.2-12.34 7.72-18.93 10.88a.69.69 0 0 1-.08.03c-4 1.6-8.76 2.24-14.6 2-4.62-.2-9.3-1.12-13.84-2-7.8-1.54-15.9-3.13-24.02-1.1-.27.06-.43.34-.37.6a.51.51 0 0 0 .61.37c7.9-1.98 15.88-.4 23.6 1.1 4.57.9 9.28 1.83 14 2.03 3.42.15 6.5-.01 9.26-.48-4 1.8-8.03 3.5-12.03 5.2l-10.17 4.37c-.4.04-1.23.23-3.08.72l-1.04.26c-2.94.62-5.72 1.04-8.5 1.28-2.75.24-5.85.3-9.15.4-7.57.17-16.15.38-22.36 2.83a.49.49 0 0 0-.28.64c.1.26.4.4.65.3 6.04-2.4 14.53-2.6 22.02-2.76 3.3-.08 6.43-.15 9.2-.4a72.49 72.49 0 0 0 7.83-1.14c-3.1 1.43-6.18 2.93-9.2 4.54a.46.46 0 0 0-.27.09c-.07.05-.14.1-.2.16-3.42 1.83-6.76 3.8-9.98 5.94l-7.94 5.38-2.54.1c-6.3.23-15.8.6-20.6 2.74-.25.1-.36.4-.25.66a.49.49 0 0 0 .66.25c4.63-2.07 14.02-2.42 20.23-2.65l.94-.03-19.8 13.7c-2.92 2.02-5.95 4.1-9.03 5.98-1.2.73-2.46 1.4-3.66 2.03-.28.15-3.4 1.53-3.6 1.6l.16.47-.3.4c.05.04.1.05.2.05.82 0 3.45-1.35 4-1.64 1.2-.64 2.5-1.32 3.72-2.07 3.1-1.9 6.14-3.98 9.08-6l.85-.6 8.37-5.8 20.08-13.75a106.13 106.13 0 0 1 6.54-4.03c-2.42 2.78-4.18 6.13-5.9 9.42-1.57 3-3.2 6.1-5.3 8.64-1.8 2.2-6.8 6.87-9.17 8.83-.2.17-.24.5-.07.7.18.22.5.25.7.07 2.4-2 7.48-6.73 9.3-8.96 2.16-2.64 3.8-5.78 5.4-8.82 2.27-4.33 4.6-8.8 8.44-11.78 4.56-2.44 9.3-4.65 14.03-6.75a.66.66 0 0 0 .27-.12l9.06-3.9c-2.3 2.82-3.42 6.53-4.44 9.87l-.45 1.43c-1.54 4.93-3.3 10.14-6.36 14.7-1.55 2.32-3.28 4.72-5.4 6.58-.07.05-.35.25-.7.47-1.7 1.15-1.7 1.15-1.66 1.5.02.28.27.48.55.45.13-.01.25-.08.33-.18.17-.14.92-.65 1.34-.93l.8-.54c2.2-1.94 3.97-4.4 5.56-6.78 3.12-4.68 4.92-9.97 6.5-14.98l.44-1.43c1.26-4.14 2.57-8.43 5.83-11.12l.06-.06c9.74-4.13 19.6-8.38 28.7-13.87-3.03 3.97-4.32 9.3-5.58 14.48-.8 3.34-1.58 6.5-2.78 9.22-1.37 3.1-3.1 6.05-5.14 8.78-.8 1.05-1.96 2.52-2.66 3.25a.49.49 0 0 0 .01.7c.2.2.5.2.7-.01.94-.97 2.44-2.96 2.74-3.34 2.1-2.8 3.86-5.8 5.26-8.98 1.23-2.8 2-6 2.83-9.4 1.47-6.05 3-12.3 7.3-16.13a.48.48 0 0 0 .16-.35 94.8 94.8 0 0 0 5.65-3.92c.02-.01.05-.02.07-.03.15-.04.26-.14.32-.27 4.28-3.25 8.3-6.9 11.9-11.13zm188.2-19.04c-.08-.24-.24-.3-.63-.45l-.1-.04c-2.95-1.2-5.94-2.83-9.7-5.3-.15-.3-.54-.48-1.03-.72-.07-.04-.15-.07-.23-.1-.24-.16-.48-.32-.7-.5-.98-1-1.85-2.2-2.65-3.3-2.05-2.9-3.76-6.364-5.38-10.935-1.3-3.683-2.54-7.59-3.85-11.722-3.36-10.547-6.82-21.453-11.8-30.332-.14-.242-.45-.328-.68-.192-.25.133-.33.438-.2.68 4.95 8.79 8.4 19.65 11.73 30.15l3.87 11.753c1.65 4.66 3.4 8.21 5.5 11.18.15.22.3.43.46.65-6.76-4.84-13.6-10.56-20.38-17.06-3.55-3.402-7-6.945-10.33-10.586-.01-.094-.04-.187-.1-.27-1.85-2.4-3.87-5.832-6-10.226-2.45-5.05-4.02-10.63-5.53-16.027-2.06-7.325-4.2-14.9-8.56-21.34-.15-.227-.46-.29-.7-.133s-.3.465-.13.695c4.27 6.305 6.38 13.8 8.4 21.047 1.53 5.44 3.1 11.067 5.6 16.19a87.46 87.46 0 0 0 2.86 5.434c-5.56-6.308-10.88-12.824-16.1-19.3-.02-.03-.05-.062-.07-.1l-3.83-4.77c-12.24-15.274-24.9-31.066-39.76-44.242a.5.5 0 0 0-.71.039.5.5 0 0 0 .05.707c14.8 13.125 27.43 28.883 39.64 44.12l.68.85c-2.67-2.04-5.3-3.667-8.03-5.36-2.5-1.55-5.08-3.152-7.83-5.164-2.82-2.05-5.3-3.996-7.58-5.953a51.65 51.65 0 0 1-2.45-2.238 2.21 2.21 0 0 1-.19-.325c-.2-.335-.37-.683-.75-.734a.64.64 0 0 0-.55.203.5.5 0 0 0 .01.707.53.53 0 0 0 .32.141c.03.05.06.113.1.16.1.203.22.414.38.562a47.12 47.12 0 0 0 2.49 2.282c2.3 1.976 4.8 3.937 7.64 6.004 2.78 2.03 5.38 3.644 7.9 5.203 3.98 2.472 7.75 4.812 11.74 8.488 9.6 11.922 19.56 23.984 30.7 34.645a206.39 206.39 0 0 0 8.31 7.55c-9.95-3.82-19.4-7.543-28.67-13.02l-3.36-2-6.6-3.887-3.64-2.02c-.24-.125-.55-.036-.67.21-.13.242-.04.546.2.675 1.22.645 2.4 1.313 3.6 2.004l6.58 3.875 3.37 2.004c9.85 5.813 19.85 9.65 30.44 13.712l.47.18c.1.04.22.04.33.01 4.36 3.65 8.72 6.95 13.05 9.9.01.02.03.04.05.06.2.2.5.36.8.52a27.55 27.55 0 0 0 .69.46c.01.04.02.07.03.1a.49.49 0 0 0 .57.29c3.77 2.47 6.8 4.12 9.78 5.34l.13.05.24.1c.08.05.17.08.27.08.05 0 .1-.01.16-.03.26-.1.4-.37.3-.63zm-293.4 2.37c3.54-.5 6.87-1.34 9.9-2.48.03-.02 2.4-1.26 3.53-2.26a182.85 182.85 0 0 1 4.6 3.04c2.95 2.03 5.5 3.96 7.78 5.9.75.64 1.57 1.37 2.48 2.23.1.1.3.4.46.63.37.55.63.94 1 .94.04 0 .1-.01.13-.02.12-.02.4-.12.47-.54a.49.49 0 0 0-.41-.56c-.04-.02-.1-.02-.12-.01-.08-.12-.17-.26-.25-.37-.2-.3-.4-.6-.6-.8a61.35 61.35 0 0 0-2.52-2.27l-1.58-1.3c.01-.03.01-.06.01-.1.01-.2-.17-.4-.34-.5-.03-.01-.06-.03-.1-.04-.25-.13-.78-.4-.96-.55-.65-.54-1.3-1.2-2.05-2.17-1.98-2.48-3.6-5.25-4.9-7.63l-.1-.18c-4.5-8.18-12.03-21.878-18.05-29.046-.18-.21-.5-.238-.7-.058a.51.51 0 0 0-.07.703c5.96 7.1 13.46 20.73 17.94 28.89l.1.18c1.15 2.1 2.53 4.48 4.2 6.73l-1.27-.88-4.6-3.04v-.03c-.02-.22-.24-.44-.47-.47-.1-.02-.18 0-.26.03-5-3.16-10.2-6.1-15.53-8.78-.06-.08-.14-.15-.24-.2-.2-.08-.4-.15-.6-.23l-3.1-1.5-6.1-2.828c-.01-.008-.02-.016-.03-.02-3.52-2.5-7.37-6.426-10.18-9.29-2.8-2.84-5.4-5.863-7.9-8.78-5.1-5.914-10.35-12.027-17.25-16.66-.22-.153-.53-.094-.7.136s-.1.54.14.692c6.78 4.558 11.77 10.35 17.04 16.484 2.53 2.934 5.14 5.965 7.95 8.828 2 2.055 4.56 4.65 7.15 6.895-8.32-3.793-16.87-7.75-24.73-12.692-2.43-1.527-4.85-3.19-7.24-4.984-1.06-1.226-2.06-2.656-3.14-4.492-.9-1.52-1.4-3.055-1.94-4.676-1.23-3.695-2.62-7.883-8.98-13.137-.22-.175-.54-.148-.7.067s-.15.527.07.703c6.14 5.074 7.42 8.94 8.67 12.684.56 1.67 1.1 3.253 2.03 4.863a34.17 34.17 0 0 0 1.05 1.699c-11.68-9.348-22.56-21.594-30.83-34.89-.14-.23-.45-.304-.68-.16a.49.49 0 0 0-.16.688c9 14.48 21.08 27.73 33.94 37.386.01.012.01.02.02.028.06.062.12.11.2.137 2.37 1.77 4.77 3.42 7.18 4.933.01.008.02.012.03.02-1.74-.332-3.57-.504-5.37-.672-1.24-.117-2.4-.227-3.5-.383-4.4-.63-8.86-2.16-12.58-4.305-3.03-1.754-5.6-3.695-7.6-5.77-.23-.235-.56-.555-.93-.922-.87-.863-2.07-2.05-2.55-2.664-.16-.22-.48-.258-.7-.086-.2.168-.25.48-.1.7.52.664 1.7 1.828 2.64 2.762l.9.906c2.07 2.14 4.7 4.14 7.82 5.94 3.82 2.208 8.42 3.782 12.93 4.426 1.13.164 2.3.274 3.56.39 2.9.273 5.93.555 8.4 1.523a.48.48 0 0 0 .18.035c7.44 4.352 15.33 7.946 23 11.438l6.3 2.897c-5.64-1.2-11.24-1.24-16.7-1.3-4.6-.04-9.35-.08-14.15-.783l-2.75-.37c-3.56-.457-5.35-.687-9.35-2.656-.54-.27-1.7-.942-3.02-1.72-2.53-1.473-5.4-3.137-6.46-3.47a.49.49 0 0 0-.62.332c-.08.266.06.543.33.625.96.297 4 2.075 6.25 3.375 1.34.79 2.5 1.47 3.08 1.75 4.15 2.047 6.1 2.296 9.66 2.756l2.73.37c4.87.7 9.66.75 14.3.8 7.56.07 14.7.14 22.1 2.86a183.85 183.85 0 0 1 16.02 8.99c-.94.68-2.74 1.8-2.98 1.9-2.97 1.12-6.22 1.94-9.7 2.44-10.38 1.5-26.6-.13-35.42-3.55-.26-.1-.55.03-.65.3s.03.54.3.65c9.1 3.52 25.22 5.13 35.93 3.6zm225.86 14.42c-.46-.03-.64.37-.95 1.06-.13.28-.28.63-.38.76-.66.87-1.4 1.76-2.3 2.83-2.6 3.02-5.37 5.87-8.2 8.76a207.3 207.3 0 0 1-9.78 9.36c-.01.01-.02.01-.02.02-2.1 1.52-4.6 2.85-7.64 4.1-7.18 2.9-17.28 3.55-27.04 4.18-5.9.38-11.48.74-16.1 1.58a.5.5 0 0 0-.4.58c.05.27.3.45.58.4 4.55-.84 10.1-1.2 15.98-1.57 9.84-.64 20-1.3 27.34-4.25 1.1-.45 2.15-.9 3.12-1.4a228.52 228.52 0 0 1-13.43 10.6c-3.9 2.85-7.97 5.53-12.13 8.1-7.04 3.9-15.63 4.06-23.95 4.23-7.13.14-14.5.28-20.85 2.78a.5.5 0 0 0-.28.64c.1.26.4.38.65.3 6.18-2.43 13.46-2.58 20.5-2.7 6.2-.13 12.55-.25 18.35-1.9l-7.75 4.4c-.17-.06-.37-.04-.52.1l-.54.5-10.68 5.76-10.52 5.7c-.1-.07-.2-.1-.32-.08-2.46.23-7.6.7-11.9 1.58-7 1.44-9.52 2.06-16.03 5.47a.51.51 0 0 0-.22.68c.13.24.43.33.68.2 6.4-3.35 8.88-3.96 15.77-5.38 3.43-.7 7.38-1.14 10.07-1.4-13.4 7.44-26.6 15.58-37.76 26.1-.2.18-.2.5-.02.7.1.1.23.16.37.16.12 0 .24-.05.34-.14 14.5-13.68 32.56-23.35 50.02-32.7l7.72-4.15c-2.62 2.82-5 5.98-7.3 9.06-3.1 4.13-6.3 8.4-10.05 11.8-2.7 2.44-5.65 4.62-8.43 6.6-1.17.84-2.15 1.5-3.08 2.1l-.37.23c-1.32.83-1.5.93-1.26 1.38.05.1.26.4.74.2a.47.47 0 0 0 .24-.22c.22-.15.6-.38.8-.52l.38-.24c.94-.6 1.94-1.27 3.12-2.12 2.8-2.02 5.78-4.22 8.52-6.7 3.82-3.44 7.05-7.76 10.18-11.93 2.96-3.95 6.02-8.04 9.57-11.35 4.82-2.64 9.62-5.37 14.3-8.26.46-.25.92-.53 1.37-.82a.53.53 0 0 0 .12-.1c3.67-2.3 7.27-4.7 10.73-7.24 1.75-1.27 3.48-2.57 5.18-3.88-3.04 4.3-5 9.28-6.92 14.14-1.76 4.46-3.58 9.07-6.2 13.03-2.1 3.18-4.74 6.36-7.82 9.48-.92.93-1.86 1.8-2.8 2.6l-.28.23c-1.78 1.43-1.78 1.43-1.54 1.82.15.23.46.3.7.16.04-.03.08-.06.1-.1.16-.15 1.03-.84 1.36-1.1.17-.14.3-.23.3-.24.95-.82 1.9-1.72 2.85-2.66 3.13-3.16 5.8-6.4 7.94-9.63 2.68-4.05 4.5-8.7 6.3-13.22 2.36-6 4.8-12.22 9.27-16.98a.49.49 0 0 0 .13-.23c6-4.82 11.66-9.9 16.95-15.14-1.26 2.6-2.6 5.78-3.15 7.86-1 3.74-1.22 7.6-1.44 11.32-.23 4.16-.48 8.46-1.8 12.6-.84 2.6-1.6 4.44-2.86 7-.12.24-.02.54.23.67.24.12.54.02.67-.23 1.3-2.6 2.05-4.46 2.9-7.12 1.37-4.26 1.62-8.62 1.86-12.85.2-3.67.43-7.47 1.4-11.1.77-2.86 3.2-8.2 4.63-10.58.01-.01.01-.02.02-.03 2.67-2.73 5.27-5.44 7.75-8.3.92-1.08 1.66-2 2.34-2.87.17-.23.33-.6.5-.96.05-.1.1-.24.16-.35.01-.01.01-.01.02-.01a.5.5 0 0 0 .38-.59c-.1-.44-.42-.5-.52-.52zm-607.62.53c.38-.8.74-1.6 1.07-2.42.1-.26-.02-.55-.27-.65a.5.5 0 0 0-.66.27c-.3.77-.65 1.53-1 2.28-.1.1-.15.2-.16.34-1.32 2.68-2.92 5.23-4.7 7.66-2.48-.9-6.56-1.76-9.1-2.08-9.67-1.2-22.37 1.18-30.88 5.8-.25.14-.34.44-.2.68.13.24.43.33.67.2 8.35-4.53 20.8-6.87 30.28-5.7 2.4.3 6.18 1.1 8.6 1.93-2.98 3.9-6.44 7.52-10 10.92-.1.04-.18.13-.23.23-2.4 2.3-4.84 4.48-7.2 6.6l-1.64 1.48c-.02 0-.05-.01-.1-.02a65.3 65.3 0 0 0-3.19-.24c-2.9-.15-5.84-.17-8.7-.03-9.04.42-17.04 2.36-24.45 5.92-.24.12-.35.4-.23.66s.42.36.67.24c7.28-3.5 15.15-5.4 24.06-5.82 2.83-.14 5.72-.12 8.6.03l2.34.16-20.3 17.83c-.05-.01-.1-.02-.17-.01-1.6.2-4.34.64-6.12.94-9.23 1.56-16.06 3.8-22.12 7.24-.25.14-.33.44-.2.68s.44.32.68.2c5.96-3.4 12.68-5.6 21.8-7.12l4.78-.76-3 2.6-16.92 14.7c-.4.07-1.08.3-2.36.72l-.88.3-.32.1c-.82.22-1.64.45-2.45.7-2.92.92-9.7 4.22-11.7 5.2a.49.49 0 0 0-.23.66.5.5 0 0 0 .67.23c2-.98 8.7-4.24 11.56-5.14.8-.26 1.6-.48 2.42-.7l.32-.1c.14-.04.5-.16.92-.3.08-.03.16-.05.26-.08l-3.33 2.95-19.16 17.34-1.32 1.23-2.72 2.48-.16.16c-.6.58-.85.8-.97.88a.51.51 0 0 0-.39.28c-.12.24-.02.54.22.66a.51.51 0 0 0 .26.07c.34 0 .74-.34 1.6-1.18l.1-.12c.93-.82 1.83-1.66 2.74-2.5l1.32-1.22 19.15-17.33 4.88-4.33c.01 0 .02-.01.03-.02.04-.03.07-.06.1-.1l12.05-10.5c-3 8.02-8.4 14.83-12.86 19.93-.82.94-1.8 1.8-2.76 2.64-1.27 1.12-2.58 2.27-3.57 3.64a.49.49 0 0 0 .12.69.51.51 0 0 0 .7-.11c.9-1.27 2.12-2.34 3.4-3.46.98-.87 2-1.75 2.85-2.74 4.8-5.5 10.66-12.92 13.6-21.76.01-.05.02-.08.02-.13l3.46-3 14.26-12.37c-2.1 8.28-5.55 16.96-9.34 23.5-1.45 2.5-3 4.9-4.58 7.15-.06.08-.2.24-.37.43-1.03 1.17-1.48 1.78-1.43 2.27.03.27.27.5.55.47.27-.03.47-.25.44-.52.06-.28.88-1.2 1.2-1.56.2-.23.37-.42.44-.52a96.96 96.96 0 0 0 4.62-7.22c4.05-6.98 7.7-16.37 9.8-25.15l9.92-8.83 1.8-1.6 6.48-5.93c.02 10.25-2.44 20.2-7.33 29.6l-.54 1.04c-1.38 2.67-3.1 6-4.7 8.3a.5.5 0 0 0 .13.7.49.49 0 0 0 .69-.13c1.64-2.35 3.38-5.7 4.77-8.4l.54-1.05c5.1-9.83 7.6-20.26 7.43-31 5.7-5.48 11.2-11.5 14.87-18.43l.54 3.13c1.26 7.27 2.7 15.5 1.68 22.1-.45 2.88-1.1 5.58-1.93 8.02-.2.57-1.2 2.52-1.95 3.94l-.88 1.7c-.1.25-.01.55.24.67.25.1.55.01.67-.24.13-.3.47-.92.86-1.67.8-1.54 1.8-3.45 2-4.1.85-2.5 1.5-5.25 1.97-8.2 1.04-6.76-.4-15.1-1.7-22.44l-.75-4.46zM63.7 48.148c12.07 5.99 22.574 15.645 32.734 24.985l5.028 4.597c-.64-.17-1.28-.312-1.907-.45-1.117-.246-2.27-.504-3.398-.918-5.22-1.9-9.91-4.773-13.817-7.324l-6.773-4.547-1.434-.992-1.523-1.06a.5.5 0 0 0-.696.133c-.156.227-.097.54.13.696.426.285.973.668 1.52 1.05l1.44 1 6.79 4.555c3.953 2.582 8.707 5.48 14.02 7.43 1.19.437 2.38.7 3.527.953 1.392.304 2.702.594 4.012 1.172 3.05 2.734 6.16 5.406 9.28 7.863 5.44 4.28 11.1 8.602 16.98 12.664-2.2-.613-4.33-.922-6.54-1.242-1.5-.215-3.02-.438-4.65-.762-3.82-.765-7.86-2.226-12.7-4.598-3.1-1.527-6.2-3.148-8.54-4.4l-.715-.38-2.297-1.203a20.16 20.16 0 0 0-1.183-.578 2.06 2.06 0 0 0-.309-.102c-.008-.004-.02-.008-.027-.012a.51.51 0 0 0-.484-.125c-.215.06-.403.274-.407.5-.004.41.37.52.64.594.066.02.137.04.18.06.386.168.76.36 1.132.55l2.286 1.2.714.38c2.344 1.246 5.44 2.87 8.58 4.406 4.93 2.4 9.04 3.898 12.95 4.68 1.65.328 3.2.554 4.7.77 3.4.497 6.6.957 10.1 2.577 5 3.32 10.17 6.4 15.5 9.1-1.85-.1-3.88 0-5.86.08-1.62.08-3.15.15-4.44.1-3.4-.12-6.97-.63-11.26-1.63-2.17-.5-4.08-1.06-5.82-1.68-.04-.01-.16-.07-.32-.14-1.44-.67-1.53-.7-1.8-.53a.5.5 0 0 0-.14.7.51.51 0 0 0 .35.22c.2.07.9.4 1.18.52l.38.17c1.8.64 3.74 1.2 5.94 1.7 4.36 1.02 8 1.54 11.46 1.66 1.33.04 2.87-.03 4.5-.1 3.04-.13 6.18-.27 8.5.25.03.01.05.01.08.02l.36.17c5.08 2.5 8.53 3.72 10.52 3.72.98 0 1.6-.3 1.9-.9 0-.02.04-.1.08-.25l-.47-.16.1.5-.24-.97c-.17.04-.33.27-.38.44-.1.2-.7.82-4.17-.32l-.83-1.06c-2-2.53-5-6.36-6.04-8.58-1.43-3.05-2.64-6.394-3.92-9.93-1.85-5.1-3.76-10.395-6.42-14.74a.49.49 0 0 0-.68-.168c-.24.145-.3.454-.17.688 2.6 4.262 4.5 9.496 6.33 14.558 1.23 3.403 2.5 6.92 3.96 10.02 1.06 2.26 3.98 6 6 8.56-1.37-.54-3.06-1.3-5.13-2.3l-.4-.2c-2.73-1.3-5.43-2.7-8.1-4.2-.02-.06-.04-.1-.07-.16-.58-.86-1.42-2.02-2.32-3.24-1.77-2.43-3.78-5.187-4.7-6.933-2-3.76-3.64-8.105-5.4-12.707-2.93-7.707-5.95-15.675-10.82-21.312-.18-.21-.5-.235-.7-.055a.5.5 0 0 0-.05.707c4.75 5.504 7.74 13.39 10.64 21.016 1.76 4.63 3.42 9.004 5.43 12.82.96 1.805 3 4.594 4.78 7.054l1.22 1.66c-2.63-1.53-5.22-3.16-7.77-4.84-.05-.07-.1-.12-.18-.15a.61.61 0 0 1-.14-.07c-4.53-2.998-8.93-6.19-13.22-9.43a.49.49 0 0 0-.08-.285c-1.77-2.66-5.9-8.887-7.26-12.106-.5-1.18-1.02-2.492-1.58-3.894-3.08-7.754-7.3-18.375-13.614-22.887-.227-.16-.536-.11-.696.117s-.11.535.114.695c6.066 4.34 10.226 14.805 13.266 22.442l1.6 3.914c1.1 2.656 4.03 7.23 6.06 10.32l-4.86-3.777c-3.04-2.4-6.08-5-9.07-7.672a.49.49 0 0 0-.24-.234c-.01-.008-.03-.012-.04-.02L97.1 72.395l-2.5-2.293a.5.5 0 0 0-.102-.438c-.21-.254-.496-.758-.75-1.203-.18-.316-.35-.613-.492-.82-.96-1.43-1.82-2.895-2.692-4.387l-.433-.75c-2.586-4.465-5.805-10.02-9.68-13.47a.5.5 0 0 0-.707.039c-.183.207-.164.524.04.707 3.758 3.344 6.93 8.82 9.48 13.223l.437.75c.805 1.387 1.668 2.848 2.594 4.246-8.738-7.926-17.867-15.64-28.164-20.75a.5.5 0 1 0-.441.898zm80.352 91.332c-.5-4.14-1-8.43 1.2-11.46.04-.06.07-.13.08-.2 2.58-1.52 5.15-3.1 7.65-4.7a.5.5 0 0 0 .15-.69c-.15-.23-.45-.3-.7-.14-4.6 2.96-9.45 5.76-14.14 8.47l-4.28 2.5a.36.36 0 0 0-.15.08l-4.3 2.55c-.07-.02-.14-.01-.2.01-3.2 1-9.84 1.06-13.2.68-5.1-.58-11.72-1.03-17.762.6-.265.07-.42.35-.35.62a.51.51 0 0 0 .613.35c5.88-1.6 12.38-1.15 17.38-.6 2.67.3 7.45.35 11.05-.17-3.55 2.2-7.05 4.5-10.4 6.97l-2.17 1.65c-2.3 1.06-6.82 2.5-8.96 3.04-3.43.85-7.027 1.13-10.504 1.4-5.863.46-11.92.93-17.363 4.18-.234.14-.312.44-.172.68a.49.49 0 0 0 .688.17c5.234-3.12 10.914-3.56 16.926-4.03 3.515-.27 7.155-.56 10.675-1.43 1.4-.35 3.82-1.1 5.98-1.86-2.53 2.04-5 4.16-7.44 6.34-.03.02-.06.05-.08.07-2.36 2.1-4.678 4.27-6.968 6.44-.082.02-.16.06-.226.12-.414.4-1.766 1.24-2.578 1.75l-.528.33c-2.02 1.3-4.2 2.4-6.468 3.25-2.828 1.08-5.914 1.8-8.9 2.47-4.76 1.1-9.683 2.23-13.883 4.87a.49.49 0 0 0-.16.68c.15.24.453.3.692.16 4.058-2.55 8.894-3.66 13.578-4.73 3.015-.7 6.137-1.4 9.027-2.5a36.26 36.26 0 0 0 5.653-2.73l-14.735 14.5c-1.457 1.4-3.758 3.5-6.308 5.78-.1.03-.172.1-.235.15a.3.3 0 0 0-.051.07c-.062.07-.16.17-.19.2a11.46 11.46 0 0 1-1.031.49c-1.082.45-2.24.8-3.324 1.1-1.07.3-2.227.52-3.344.73-2.188.42-4.453.86-6.434 1.9-.242.13-.336.43-.207.68a.5.5 0 0 0 .672.21c1.852-.98 4.04-1.4 6.156-1.8 1.137-.22 2.313-.45 3.426-.76a39.32 39.32 0 0 0 1.859-.56l-1.328 1.2c-5.86 5.2-11.394 10.14-12.168 11.32-.152.23-.086.54.145.7.086.06.18.08.273.08.164 0 .325-.08.418-.22.7-1.07 6.703-6.4 11.996-11.13l10.37-9.4L85.5 174c-.933 1.76-1.722 3.6-2.5 5.4-1.11 2.58-2.258 5.25-3.804 7.62-1.305 2-2.6 3.68-3.922 5.13-.465.5-.965 1.03-1.508 1.48a4.85 4.85 0 0 1-.512.38c-.03.02-.094.05-.144.08a.61.61 0 0 0-.176.09c-.21.17-.27.48-.117.7.29.4.738.12.976-.03.21-.13.418-.3.6-.45.593-.5 1.117-1.05 1.605-1.57 1.37-1.5 2.688-3.2 4.027-5.27 1.6-2.43 2.758-5.14 3.887-7.77 1.262-2.93 2.567-5.97 4.457-8.56a.41.41 0 0 0 .078-.16c4.782-4.73 9.653-9.52 14.695-14.12-.7 1.95-.96 4.05-1.22 6.1-.1.75-.2 1.48-.3 2.2-.58 3.65-1.632 7.13-3.132 10.32-1.793 3.82-4.254 7.22-6.43 10.05-.735.97-1.46 1.9-2.215 2.8a2.76 2.76 0 0 1-.293.28c-.485.45-.805.77-.89 1.1a.52.52 0 0 0 .36.62.48.48 0 0 0 .601-.35c.063-.13.43-.47.606-.63.168-.15.308-.3.382-.38.766-.9 1.5-1.85 2.243-2.82 2.207-2.87 4.707-6.33 6.543-10.23 1.545-3.28 2.625-6.85 3.215-10.6a75.05 75.05 0 0 0 .3-2.23c.36-2.75.72-5.6 2.12-7.93 3.26-2.9 6.6-5.72 10.02-8.38a.75.75 0 0 0 .18-.08c.1-.05.2-.14.23-.23l1.84-1.38c4.58-3.4 9.47-6.48 14.4-9.4-4.2 5.52-6.16 13.25-7.77 19.64l-.57 2.2c-1.22 4.75-3.2 9.3-5.9 13.55-2.23 3.52-4.22 6.2-6.27 8.44l-.25.3c-1.07 1.3-1.5 1.67-1.68 1.74-.24.01-.45.2-.48.44-.04.27.15.52.42.56.52.08 1.1-.42 2.5-2.1.1-.12.18-.22.22-.26 2.1-2.3 4.1-5.02 6.38-8.6 2.73-4.33 4.76-8.98 6-13.83l.56-2.2c1.84-7.23 4.1-16.23 9.58-21.5l4.33-2.52 4.8-2.78c-1.47 3.14-1 7-.56 10.76.24 2.08.47 4.04.37 5.8-.15 2.3-.46 4.32-.96 6.18-.16.6-.35 1.28-.63 1.94-.08.2-.24.54-.35.75-.08.06-.14.15-.17.26-.07.25.06.6.3.68.47.16.68-.2 1.13-1.3.3-.7.52-1.44.68-2.07.52-1.92.84-4 .98-6.37.12-1.83-.12-3.84-.37-5.97zm138.75-21c1.8-2.7 6.58-9.84 4.78-19.877-.05-.27-.3-.445-.6-.402-.27.047-.45.31-.4.582 1.74 9.637-2.88 16.547-4.62 19.137-.15.22-.26.4-.36.55l-11.2-14.37c.42-.74 1.05-1.98 1.3-2.6.64-1.674 1.04-3.545 1.26-5.88.54-5.797-1.75-17.387-3.32-23.332-.07-.266-.35-.43-.62-.356-.26.07-.42.344-.35.614 1.56 5.875 3.83 17.312 3.3 22.98-.2 2.246-.6 4.03-1.2 5.615-.2.5-.66 1.42-1.03 2.12-3.77-4.692-7.42-9.063-9.8-11.46l-3.7-3.65c.5-2.348 1.17-5.55 1.2-7.16.14-5.754-2.3-15.383-4.1-20.38-.1-.262-.38-.394-.64-.3a.5.5 0 0 0-.3.637c1.76 4.926 4.18 14.39 4.04 20.02-.04 1.48-.68 4.628-1.06 6.367l-8.53-7.985-3.67-3.394c.1-.238 0-.504-.23-.62-.6-.453-2.18-5.22-2.45-6.418-.83-3.7-4.34-10.512-6.9-15.488l-1.68-3.293c-.12-.25-.42-.352-.67-.227a.51.51 0 0 0-.23.668l1.7 3.31c2.4 4.652 6 11.675 6.8 15.25.02.043.78 2.85 1.64 4.93-13.64-12.816-27.16-27.004-36.73-49.72-.1-.253-.4-.37-.65-.265a.49.49 0 0 0-.27.652c9.66 22.922 23.27 37.196 37 50.094-.47.137-1.83.055-5.3-.805-.63-.152-1.08-.265-1.34-.3-8.3-1.085-16.76-4.19-25.17-9.234-.24-.14-.54-.062-.7.176-.14.234-.06.543.17.683 8.53 5.1 17.14 8.262 25.57 9.368.2.027.67.144 1.22.28 3.37.832 5.44 1.172 6.3.543l4.9 4.547 10.72 10.11c-.87.777-5.58 3.496-7.08 4.055-7.7 2.86-16.35 1.972-27.2-2.793-.25-.1-.55.004-.66.258s.01.547.26.66c11.12 4.875 20 5.77 27.96 2.808.92-.34 2.95-1.437 4.45-2.316 1.73-1.012 2.58-1.594 3-1.973l1.6 1.6c3.58 3.63 10.16 11.848 15.56 18.778-.7.34-1.66.7-2.4.96l-.38.14c-2.54.95-5.37 1.52-8.63 1.75-9.08.65-13.52.15-21.86-4.1-.24-.12-.54-.02-.67.23a.5.5 0 0 0 .22.67c8.55 4.34 13.1 4.85 22.38 4.2 3.36-.24 6.28-.84 8.9-1.82l.37-.14c.82-.3 1.9-.7 2.68-1.08l8.05 10.5c.1.13.25.2.4.2a.49.49 0 0 0 .3-.1c.22-.16.27-.48.1-.7-.03-.05-.8-1.05-2.02-2.66.01-.02.01-.03.01-.05.06-.13.3-.48.52-.8zm373.98-54.83a11.17 11.17 0 0 0 .87.629 55.07 55.07 0 0 0 2.44 1.527c3.07 1.83 5.94 3.348 8.78 4.65 6.52 2.98 13.4 5.328 20.06 7.6l6.97 2.407 9.5 3.414c-1.32.265-2.58.754-3.82 1.234-.8.31-1.64.633-2.46.88-3.8 1.14-7.86 1.543-12.12 1.207-2.8-.223-5.5-.68-8.03-1.363-.98-.266-1.82-.555-2.57-.89-.23-.105-.76-.414-1.04-.582-.26-.152-.65-.383-.9.03-.14.23 0 .586.22.735.04.023.07.043.1.054l.07.04c.44.258.88.516 1.14.633.8.36 1.7.668 2.72.946 2.6.7 5.35 1.168 8.2 1.394 4.38.352 8.6-.07 12.5-1.246.85-.258 1.7-.586 2.53-.902 1.9-.74 3.73-1.434 5.66-1.364l10 3.77c.65.488 1.25.902 1.84 1.254.23.137.63.273.98.398.07.024.13.043.18.063.1.1.2.172.36.18.23.032.5-.136.6-.347l8.84 3.63c-2.16-.086-4.1.136-5.85.66-2.83.84-5.44 2.21-7.97 3.543-2.9 1.512-5.86 3.07-9.13 3.82-2.94.67-5.8.95-8.27.8l-.14-.01c-1.36-.07-1.73-.22-1.83-.28a.49.49 0 0 0-.61-.23c-.26.1-.4.4-.3.64.23.63 1.2.8 2.68.87h.13c2.57.15 5.53-.13 8.55-.82 3.4-.78 6.43-2.37 9.37-3.917 2.5-1.305 5.06-2.657 7.8-3.465 2.45-.727 5.27-.832 8.6-.317a326.23 326.23 0 0 1 8.52 3.852c.04.047.1.1.14.133.96.88 1.5 1.214 1.96 1.184.14 0 .27-.05.4-.133a278.22 278.22 0 0 1 9.34 4.733c-1.95-.3-4.02-.4-6.06-.03-3.2.57-6.24 2.08-9.2 3.55-1.4.7-2.87 1.43-4.3 2-2.16.9-4.56 1.6-7.56 2.24-.77.17-1.57.34-2.35.36-.14.01-.64-.1-.9-.14-.42-.08-.83-.16-.97.3-.07.24.13.55.37.65.1.04.2.04.3.02.04.01.07.02.1.02.46.1.85.16 1.12.16.87-.03 1.7-.2 2.53-.38 3.06-.65 5.5-1.38 7.73-2.3 1.45-.6 2.93-1.33 4.36-2.04 2.88-1.43 5.86-2.9 8.92-3.45 3.06-.55 6.27.02 8.9.68 6.05 3.34 11.98 6.96 17.73 10.94.08.06.18.1.28.1.16 0 .3-.08.4-.22.16-.23.1-.54-.12-.7-2.66-1.84-5.37-3.6-8.1-5.3.06-.16.05-.34-.06-.48-.48-.63-1.02-1.24-1.6-1.88-.76-.84-1.53-1.7-2.14-2.62-1.1-1.7-2.15-3.44-3.17-5.13-2.27-3.765-4.62-7.66-7.6-11.077a.5.5 0 0 0-.71-.047c-.2.18-.23.496-.05.703 2.94 3.355 5.26 7.21 7.5 10.94l3.2 5.15c.64 1 1.45 1.9 2.23 2.75l.43.48c-2.2-1.33-4.42-2.62-6.66-3.88a.5.5 0 0 0-.37-.44 20.1 20.1 0 0 0-.83-.22c-4.82-2.65-9.72-5.13-14.66-7.457-1.5-1.402-2.86-2.988-4.1-4.5-1.8-2.215-3.5-4.72-5.13-7.144-3.47-5.15-7.06-10.477-12.33-13.903a.5.5 0 0 0-.69.145.5.5 0 0 0 .15.691c5.1 3.317 8.62 8.56 12.04 13.625 1.65 2.445 3.35 4.97 5.2 7.22.72.875 1.47 1.777 2.28 2.66l-5.14-2.305c-.05-.175-.2-.32-.4-.35l-.68-.117c-5.18-2.254-10.4-4.375-15.6-6.395l-.5-.387c-1.9-1.543-3.86-3.4-5.93-5.648-1.04-1.133-2.1-2.344-3.17-3.582-4.57-5.27-9.76-11.242-16.32-13.672-.26-.098-.55.035-.64.293-.1.258.04.547.3.645 6.32 2.34 11.42 8.21 15.92 13.386l3.18 3.606c1.47 1.605 2.9 3.01 4.27 4.246l-6.38-2.39c-.06-.164-.2-.29-.4-.312-.2-.032-.4-.05-.6-.063l-11.58-4.168-3.14-1.097c-.14-.196-.42-.27-.7-.34-.1-.032-.3-.078-.35-.106-.62-.332-1.23-.683-1.83-1.04-1.7-1.023-3.37-2.117-4.93-3.258-1.96-1.437-3.76-3.207-5.5-4.92-2.12-2.086-4.32-4.247-6.84-5.848-.24-.15-.55-.082-.7.152a.5.5 0 0 0 .15.692c2.44 1.546 4.6 3.664 6.67 5.714 1.77 1.74 3.6 3.54 5.6 5.016a62.07 62.07 0 0 0 3.1 2.125c-6.17-2.113-12.5-4.324-18.5-7.07-2.8-1.278-5.64-2.78-8.68-4.594a53.49 53.49 0 0 1-2.39-1.5 9.64 9.64 0 0 1-.87-.629 10.98 10.98 0 0 0-.25-.199c-.05-.12-.15-.22-.28-.266-.23-.086-.53 0-.66.215-.23.402.1.652.63 1.082zm-207.23 30.97c-3.52-2.64-7.84-2.844-9.63-.453s-.38 6.474 3.15 9.114 7.85 2.84 9.64.45c1.78-2.4.37-6.474-3.16-9.11zm-90.74 75.58c2.07 2.05 1.25 6.24-1.83 9.36-3.08 3.1-7.26 4-9.33 1.95-2.07-2.05-1.25-6.24 1.83-9.36 3.08-3.1 7.26-4 9.33-1.95" fill="#e29014"/></svg>