<svg xmlns="http://www.w3.org/2000/svg" xmlns:xlink="http://www.w3.org/1999/xlink" height="682.667" viewBox="0 0 512 512" width="682.667" xmlns:v="https://vecta.io/nano"><radialGradient id="A" cx="104.957" cy="447.447" gradientUnits="userSpaceOnUse" r="564.646"><stop offset="0" stop-color="#fae100"/><stop offset=".054" stop-color="#fadc04"/><stop offset=".117" stop-color="#fbce0e"/><stop offset=".183" stop-color="#fcb720"/><stop offset=".251" stop-color="#fe9838"/><stop offset=".305" stop-color="#ff7950"/><stop offset=".492" stop-color="#ff1c74"/><stop offset="1" stop-color="#6c1cd1"/></radialGradient><linearGradient id="B" gradientUnits="userSpaceOnUse" x1="196.373" x2="-671.016" y1="222.46" y2="-265.446"><stop offset="0" stop-color="#a1b5d8" stop-opacity="0"/><stop offset=".309" stop-color="#90a2bd" stop-opacity=".3"/><stop offset=".755" stop-color="#7c8b9c" stop-opacity=".757"/><stop offset="1" stop-color="#748290"/></linearGradient><linearGradient id="C" gradientUnits="userSpaceOnUse" x1="256" x2="256" y1="451.966" y2="531.774"><stop offset="0" stop-color="#fae100" stop-opacity="0"/><stop offset=".307" stop-color="#fca800" stop-opacity=".306"/><stop offset=".628" stop-color="#fe7300" stop-opacity=".627"/><stop offset=".869" stop-color="#ff5200" stop-opacity=".867"/><stop offset="1" stop-color="#ff4500"/></linearGradient><linearGradient id="D" gradientUnits="userSpaceOnUse"><stop offset="0" stop-color="#833ab4" stop-opacity="0"/><stop offset="1" stop-color="#833ab4"/></linearGradient><linearGradient id="E" x1="226.872" x2="100.161" xlink:href="#D" y1="226.148" y2="99.436"/><linearGradient id="F" x1="350.9" x2="287.656" xlink:href="#D" y1="468.287" y2="170.138"/><linearGradient id="G" x1="374.965" x2="120.941" xlink:href="#D" y1="374.965" y2="120.941"/><linearGradient id="H" x1="393.807" x2="309.806" xlink:href="#D" y1="221.263" y2="137.262"/><linearGradient id="I" gradientUnits="userSpaceOnUse" x1="357.658" x2="150.543" y1="155.05" y2="362.165"><stop offset="0" stop-color="#833ab4"/><stop offset=".092" stop-color="#9c3495"/><stop offset=".293" stop-color="#dc2546"/><stop offset=".392" stop-color="#fd1d1d"/><stop offset=".559" stop-color="#fc6831"/><stop offset=".689" stop-color="#fc9b40"/><stop offset=".752" stop-color="#fcaf45"/><stop offset=".781" stop-color="#fdb750"/><stop offset=".866" stop-color="#fecb6a"/><stop offset=".942" stop-color="#ffd87a"/><stop offset="1" stop-color="#ffdc80"/></linearGradient><path d="M503.234 91.578c-4.66-43.664-39.145-78.156-82.812-82.812a1546.42 1546.42 0 0 0-328.84 0c-43.668 4.66-78.156 39.148-82.816 82.813a1546.42 1546.42 0 0 0 0 328.84c4.66 43.668 39.148 78.156 82.813 82.816a1546.46 1546.46 0 0 0 328.844 0c43.668-4.66 78.152-39.148 82.813-82.816a1546.42 1546.42 0 0 0 0-328.84zm0 0" fill="url(#A)"/><path d="M475.387 110.098c-4.133-38.746-34.734-69.352-73.484-73.488-97.172-10.367-194.633-10.367-291.805 0-38.746 4.137-69.352 34.742-73.488 73.488a1372.75 1372.75 0 0 0 0 291.801c4.137 38.75 34.742 69.355 73.488 73.488 97.172 10.37 194.633 10.37 291.8 0 38.75-4.133 69.355-34.738 73.488-73.488 10.37-97.168 10.37-194.63 0-291.8zm0 0" fill="url(#B)"/><path d="M7.672 409.805l1.094 10.617c4.66 43.664 39.148 78.152 82.816 82.813a1546.42 1546.42 0 0 0 328.84 0c43.668-4.66 78.152-39.148 82.813-82.812l1.098-10.617zm0 0" fill="url(#C)"/><path d="M503.234 420.418c6.28-58.84 9.18-117.773 8.71-176.7l-117.03-117.03c-14.62-16.69-35.977-27.11-61.07-28.012-51.605-1.86-103.375-1.766-154.988.008-42.867 1.477-72.844 30.29-80.53 72.637-1.355 7.477-2.168 15.05-3.234 22.582V318.05c.6 4.023 1.457 8.027 1.727 12.074 1.72 25.758 12.305 47.82 29.254 62.746l119.094 119.1c58.445.4 116.895-2.496 175.258-8.727 43.668-4.66 78.152-39.148 82.813-82.816zm0 0" fill="url(#E)"/><path d="M503.234 420.422c-4.656 43.66-39.152 78.156-82.812 82.813-58.355 6.227-116.816 9.137-175.254 8.727L126.254 393.047c13.785 12.066 31.754 19.414 52.605 20.2 51.602 1.938 103.383 1.887 154.984.027 46.672-1.687 80.445-36.23 81.902-82.902a2373.98 2373.98 0 0 0 0-148.793c-.664-21.53-8.223-40.477-20.754-54.812L511.95 243.723c.46 58.918-2.437 117.86-8.715 176.7zm0 0" fill="url(#F)"/><path d="M316.414 200.56C301.422 184.234 279.9 173.992 256 173.992c-45.29 0-82.008 36.72-82.008 82.008 0 23.9 10.242 45.422 26.566 60.414l189.738 189.738 30.12-2.918c43.668-4.66 78.156-39.148 82.816-82.816l2.918-30.12zm0 0" fill="url(#G)"/><path d="M511.008 311.152l-152.703-152.7c-3.562-4.676-9.176-7.71-15.508-7.71-10.773 0-19.512 8.734-19.512 19.512 0 6.332 3.035 11.945 7.71 15.508l177.28 177.285a1537.44 1537.44 0 0 0 2.73-51.895zm0 0" fill="url(#H)"/><use xlink:href="#K" fill="url(#I)"/><g fill="#fff"><use xlink:href="#K"/><path d="M256 173.996c-45.3 0-82.008 36.715-82.008 82.004s36.72 82.008 82.008 82.008 82.008-36.715 82.008-82.008-36.715-82.004-82.008-82.004zm0 135.777c-29.7 0-53.773-24.074-53.773-53.773S226.3 202.227 256 202.227 309.773 226.3 309.773 256 285.7 309.773 256 309.773zm106.305-139.52c0 10.773-8.734 19.508-19.508 19.508s-19.512-8.734-19.512-19.508 8.738-19.512 19.512-19.512 19.508 8.734 19.508 19.512zm0 0"/></g><defs ><path id="K" d="M95.1 193.902c1.066-7.53 1.88-15.105 3.234-22.582 7.684-42.348 37.664-71.16 80.53-72.637 51.613-1.773 103.383-1.867 154.988-.008 46.656 1.68 80.445 36.227 81.902 82.898 1.55 49.56 1.55 99.238 0 148.797-1.457 46.672-35.234 81.215-81.898 82.898-51.605 1.863-103.387 1.9-154.988-.027-46.664-1.754-78.922-36.38-82.043-83.12-.27-4.043-1.137-8.05-1.727-12.074V193.902zM256.043 385.61c23.617 0 47.258.707 70.844-.164 36.98-1.37 59.727-23.44 60.6-60.387a2973.28 2973.28 0 0 0 0-138.172c-.863-36.937-23.625-59.523-60.6-60.31a3343.88 3343.88 0 0 0-140.805 0c-36.684.77-59.496 22.898-60.492 59.43-1.266 46.617-1.266 93.316 0 139.934.996 36.527 23.81 58.145 60.496 59.504 23.29.867 46.637.164 69.957.164zm0 0"/></defs></svg>