<svg xmlns="http://www.w3.org/2000/svg" xmlns:xlink="http://www.w3.org/1999/xlink" height="682.667" viewBox="0 0 512 512" width="682.667"  xmlns:v="https://vecta.io/nano"><linearGradient id="A" gradientUnits="userSpaceOnUse" x1="169.994" x2="299.493" y1="71.986" y2="349.055"><stop offset="0" stop-color="#0077b5"/><stop offset="1" stop-color="#0066b2"/></linearGradient><linearGradient id="B" gradientUnits="userSpaceOnUse"><stop offset="0" stop-color="#0066b2" stop-opacity="0"/><stop offset="1" stop-color="#07485e"/></linearGradient><linearGradient id="C" x1="364.283" x2="-379.586" xlink:href="#B"  y1="314.087" y2="-84.952"/><linearGradient id="D" x1="256" x2="256" xlink:href="#B"  y1="415.827" y2="522.834"/><linearGradient id="E" x1="271.354" x2="79.917" xlink:href="#B"  y1="273.775" y2="82.338"/><linearGradient id="F" x1="383.749" x2="-1.757" xlink:href="#B"  y1="451.631" y2="270.925"/><linearGradient id="G" x1="477.531" x2="208.97" xlink:href="#B"  y1="491.254" y2="222.693"/><path d="M420.422 503.234a1546.46 1546.46 0 0 1-328.844 0c-43.664-4.66-78.152-39.148-82.812-82.816a1546.42 1546.42 0 0 1 0-328.84c4.66-43.664 39.148-78.152 82.813-82.812a1546.42 1546.42 0 0 1 328.84 0c43.668 4.66 78.156 39.148 82.816 82.813a1546.42 1546.42 0 0 1 0 328.84c-4.66 43.668-39.145 78.156-82.812 82.816zm0 0" fill="url(#A)"/><path d="M475.387 110.098c-4.133-38.746-34.734-69.352-73.484-73.488-97.172-10.367-194.633-10.367-291.805 0-38.746 4.137-69.352 34.742-73.488 73.488a1372.75 1372.75 0 0 0 0 291.801c4.137 38.75 34.742 69.355 73.488 73.488 97.172 10.37 194.633 10.37 291.8 0 38.75-4.133 69.355-34.738 73.488-73.488 10.37-97.168 10.37-194.63 0-291.8zm0 0" fill="url(#C)"/><path d="M7.672 409.805l1.094 10.617c4.66 43.664 39.148 78.152 82.816 82.813a1546.42 1546.42 0 0 0 328.84 0c43.668-4.66 78.152-39.148 82.813-82.812l1.098-10.617zm0 0" fill="url(#D)"/><path d="M497.715 443.57L167.31 113.16c-7.38-9.63-18.988-15.844-32.055-15.844-22.29 0-40.36 18.066-40.36 40.355 0 13.07 6.22 24.68 15.848 32.055L440 498.988c26.613-8.855 47.824-29.305 57.715-55.418zm0 0" fill="url(#E)"/><path d="M169.152 204.504h-67.8v210.18l96.203 96.203c74.305 2.813 148.66.27 222.863-7.652a92.96 92.96 0 0 0 35.938-11.527zm0 0" fill="url(#F)"/><path d="M399.4 222.11c-12.402-13.598-30.258-22.13-50.105-22.13-31.395 0-51.656 11.027-63.715 21.266l-13.285-16.742h-62.473v210.18l96.492 96.492c38.055-1.238 76.094-3.887 114.098-7.94 43.668-4.66 78.152-39.148 82.813-82.812 3.117-29.195 5.395-58.414 6.848-87.64zm0 0" fill="url(#G)"/><path d="M101.355 204.504h67.797v210.18h-67.797zm247.95-4.524c-49.684 0-71.508 27.613-77 36.02v-31.496h-62.473v210.18h67.8V309.1c0-30.508 14.043-54.238 40.68-54.238s30.992 29.54 30.992 65.863v93.95h67.8V267.78c0-37.445-30.355-67.8-67.8-67.8zM175.6 137.676c0 22.3-18.066 40.355-40.355 40.355s-40.36-18.066-40.36-40.355 18.07-40.36 40.36-40.36 40.355 18.07 40.355 40.36zm0 0" fill="#fff"/></svg>