<svg xmlns="http://www.w3.org/2000/svg" xmlns:xlink="http://www.w3.org/1999/xlink" width="100" height="100" xmlns:v="https://vecta.io/nano"><style><![CDATA[.B{opacity:.9}.C{fill:#00b300}.D{stroke:#00a700}.E{fill:none}.F{stroke:#009c00}.G{stroke-width:.804}.H{stroke-width:.324}.I{stroke-width:.77}.J{stroke-width:.311}.K{stroke-width:1.048}.L{stroke-width:.423}]]></style><path d="M67.304 87.235V85.12s-6.614.132-8.466-1.323-3.042-3.968-3.042-7.804V63.955s17.593-1.852 23.148-7.407 7.143-14.55 7.143-20.106l.03-14.147c0-2.384.42-6.628 3.657-6.628l4.12.008v-2.778l-5.556-.132c-2.116 0-7.21.33-9.788 2.9S74.315 25.33 74.315 37.5s-1.058 15.476-4.1 18.52c-4.564 4.564-14.418 4.894-14.418 4.894v-34.92c0-4.233-.132-6.48 1.852-8.466s8.598-1.72 8.598-1.72v-3.042H33.754v3.042s6.614-.265 8.598 1.72 1.852 4.233 1.852 8.466v34.92s-9.854-.33-14.418-4.894c-3.042-3.042-4.1-6.35-4.1-18.518s-1.653-19.246-4.233-21.825-7.672-2.9-9.788-2.9-5.556.132-5.556.132v2.778l4.12-.008c3.235 0 3.657 4.245 3.657 6.628l.03 14.147c0 5.556 1.587 14.55 7.143 20.106s23.148 7.407 23.148 7.407v12.037c0 3.836-1.2 6.35-3.042 7.804s-8.466 1.323-8.466 1.323v2.116" fill-rule="evenodd"/><path d="M32.714 86.314c0-.683.427-.82 3.108-.99 4-.256 6.092-1.275 7.246-3.514.777-1.506.89-2.597 1.005-9.775l.13-8.08-3.476-.532c-5.404-.827-11.74-2.54-15.09-4.08-3.817-1.753-6.29-4.236-8.296-8.334-2.678-5.47-2.912-6.927-3.22-20.048-.24-10.228-.382-12.057-1.032-13.26-.894-1.653-2.142-2.206-4.98-2.206-1.92 0-2.09-.082-2.09-1s.22-1.033 2.648-1.29c4.965-.523 10.738.846 12.696 3.01 2.41 2.666 3.675 9.116 3.97 20.263.238 8.95.757 13.877 1.7 16.136 1.642 3.93 5.85 6.703 12.123 7.985 5.656 1.156 4.997 3.757 4.997-19.713 0-22.562-.002-22.582-2.705-23.986-.726-.377-2.702-.775-4.392-.885l-3.072-.2v-2.855h31.78v2.87l-2.86.172c-3.277.198-4.95.9-6.212 2.602-.866 1.17-.888 1.656-1.003 21.928-.135 23.892-.788 21.223 4.902 20.07 6.146-1.244 10.303-3.883 11.973-7.602 1.162-2.587 1.58-5.993 1.876-15.254.304-9.525.75-13.497 1.958-17.405 1-3.27 2.347-4.94 4.725-5.9 2.43-.982 7.194-1.554 10.17-1.222 2.205.246 2.436.368 2.436 1.277 0 .92-.173 1.005-2.09 1.005-2.84 0-4.087.554-4.97 2.206-.64 1.198-.782 3.102-1.01 13.472-.254 11.517-.318 12.233-1.38 15.466-1.18 3.598-3.425 7.693-5.303 9.675-2.6 2.745-11.038 5.743-20.048 7.122l-3.335.51.002 7.236c.002 8.056.316 9.782 2.155 11.877 1.37 1.56 3.858 2.35 7.397 2.35 1.603 0 1.886.127 1.886.847 0 .834-.282.847-17.16.847-16.476 0-17.16-.032-17.16-.792z" fill="#784421"/><g class="B"><use xlink:href="#B" class="B C D G"/><path d="M31.845 72.77c3.65-4.7 10.423-6.3 10.423-6.3" class="B E F H"/><use xlink:href="#B" x="-11.142" y="-3.375" class="B C D G"/><path d="M20.703 69.397c3.65-4.7 10.423-6.3 10.423-6.3" class="B E F H"/><use xlink:href="#B" x="-25.972" y="-17.993" class="B C D G"/><path d="M5.872 54.778c3.65-4.7 10.423-6.3 10.423-6.3" class="B E F H"/><path d="M3.36 44.7c10.472-.084 15.222-7.778 6.956-8.82S3.36 44.7 3.36 44.7z" class="B C D G"/><path d="M3.542 44.185c3.65-4.7 10.423-6.3 10.423-6.3" class="B E F H"/><use xlink:href="#B" x="-28.302" y="-38.544" class="B C D G"/><path d="M3.542 34.227c3.65-4.7 10.423-6.3 10.423-6.3" class="B E F H"/><use xlink:href="#B" x="-30.634" y="-48.29" class="B C D G"/><path d="M1.21 24.48c3.65-4.7 10.423-6.3 10.423-6.3" class="B E F H"/><use xlink:href="#C" class="B C D G"/><use xlink:href="#D" class="B E F H"/><use xlink:href="#C" x="12.078" y="-1.907" class="B C D G"/><use xlink:href="#D" x="12.076" y="-1.905" class="B E F H"/><use xlink:href="#C" x="22.882" y="-6.992" class="B C D G"/><use xlink:href="#D" x="22.88" y="-6.991" class="B E F H"/><path d="M94.735 57c-10.472-.084-15.222-7.778-6.956-8.82S94.735 57 94.735 57z" class="B C D G"/><use xlink:href="#D" x="27.542" y="-15.042" class="B E F H"/><use xlink:href="#C" x="30.085" y="-23.729" class="B C D G"/><use xlink:href="#D" x="30.084" y="-23.728" class="B E F H"/><use xlink:href="#C" x="30.085" y="-34.332" class="B C D G"/><use xlink:href="#D" x="30.084" y="-34.322" class="B E F H"/><use xlink:href="#C" x="30.508" y="-44.492" class="B C D G"/><use xlink:href="#D" x="30.508" y="-44.491" class="B E F H"/><path d="M26.314 14.654C33 7.45 30.92-.862 24.913 4.092s1.4 10.562 1.4 10.562z" stroke-width=".754" class="B C D"/><path d="M26.314 14.654c-1.09-5.858 3.5-11.8 3.5-11.8" stroke-width=".368" class="B E F"/><use xlink:href="#E" class="B C D I"/><path d="M37.9 11.998C37.07 6.482 40.552.878 40.552.878" class="B E F J"/><path d="M48.515 12.462C41.45 5.352 43.64-2.852 49.997 2.037s-1.482 10.424-1.482 10.424z" class="B C D I"/><path d="M48.754 12.002C49.58 6.487 46.1.883 46.1.883" class="B E F J"/><path d="M59.32 12.462c-7.065-7.11-4.876-15.314 1.482-10.424S59.32 12.462 59.32 12.462z" class="B C D I"/><path d="M59.56 12.002c.827-5.516-2.654-11.12-2.654-11.12" class="B E F J"/><use xlink:href="#E" x="31.78" y="-0.207" class="B C D I"/><path d="M69.678 11.8C68.85 6.275 72.332.67 72.332.67" class="B E F J"/><path d="M80.723 13.31C87.787 6.2 85.6-2.005 79.24 2.885s1.482 10.424 1.482 10.424z" class="B C D I"/><path d="M80.483 12.85c-.827-5.516 2.654-11.12 2.654-11.12" class="B E F J"/><use xlink:href="#E" x="55.754" y="0.44" class="B C D I"/><path d="M93.652 12.437c-.827-5.516 2.654-11.12 2.654-11.12" class="B E F J"/><path d="M15.464 12.673C8.4 5.564 10.588-2.64 16.946 2.25s-1.482 10.424-1.482 10.424z" class="B C D I"/><path d="M15.703 12.214c.827-5.516-2.654-11.12-2.654-11.12" class="B E F J"/><path d="M4.24.886C11.304 7.995 9.116 16.2 2.758 11.3S4.24.886 4.24.886z" class="B C D I"/><path d="M4 1.345c-.827 5.516 2.654 11.12 2.654 11.12" class="B E F J"/><path d="M65.32 40.273c-9.336 9.95-6.444 21.436 1.96 14.592s-1.96-14.592-1.96-14.592z" class="B C D K"/><path d="M65.636 40.916c1.093 7.72-3.507 15.565-3.507 15.565" class="B E F L"/><path d="M66.167 18.663c-9.336 9.95-6.444 21.436 1.96 14.592s-1.96-14.592-1.96-14.592z" class="B C D K"/><path d="M66.483 19.306c1.093 7.72-3.507 15.565-3.507 15.565" class="B E F L"/><path d="M35.105 41.332c9.336 9.95 6.444 21.436-1.96 14.592s1.96-14.592 1.96-14.592z" class="B C D K"/><path d="M34.788 41.975c-1.093 7.72 3.507 15.565 3.507 15.565" class="B E F L"/><path d="M32.774 20.358c9.336 9.95 6.444 21.436-1.96 14.592s1.96-14.592 1.96-14.592z" class="B C D K"/><path d="M32.458 21c-1.093 7.72 3.507 15.565 3.507 15.565" class="B E F L"/><use xlink:href="#B" x="-20.252" y="-8.248" class="C D G"/><path d="M11.592 64.524c3.65-4.7 10.423-6.3 10.423-6.3" class="E F H"/></g><defs ><path id="B" d="M31.662 73.288c10.472-.084 15.222-7.778 6.956-8.82s-6.956 8.82-6.956 8.82z"/><path id="C" d="M67.192 72.032c-10.472-.084-15.222-7.778-6.956-8.82s6.956 8.82 6.956 8.82z"/><path id="D" d="M67.01 71.515c-3.65-4.7-10.423-6.3-10.423-6.3"/><path id="E" d="M38.138 12.457c7.065-7.11 4.876-15.314-1.482-10.424s1.482 10.424 1.482 10.424z"/></defs></svg>