<svg xmlns="http://www.w3.org/2000/svg" height="512" viewBox="0 0 511.262 511.262" width="512"  xmlns:v="https://vecta.io/nano"><path d="M215.034 489.21v-47.79c0-11.87-9.6-21.508-21.47-21.554l-74.58-.292c-12.782-.05-23.68-9.27-25.85-21.868l-12.69-73.767H52.47a6.15 6.15 0 0 1-6.15-6.15c0-23.513 6.578-46.556 19-66.526l9.1-14.643c1.25-2.01 1.824-4.365 1.642-6.723l-3.416-44.206C65.21 89.58 141.195 7.5 237.59 7.5c117.757 0 202.185 113.562 168.262 226.328l-34.465 114.57V488.44c0 7.954-6.423 14.415-14.376 14.463l-127.43.77c-8.02.05-14.55-6.44-14.55-14.462z" fill="#ffcebf"/><path d="M262.238 495.683v-84.99c0-11.87-9.6-21.508-21.47-21.554l-74.58-.292c-12.782-.05-23.68-9.27-25.85-21.868l-7.948-46.2a33.2 33.2 0 0 0-32.716-27.568c-3.398 0-6.15-2.78-6.15-6.18a126.02 126.02 0 0 1 18.99-66.497l9.1-14.643c1.25-2.01 1.824-4.365 1.642-6.723l-3.416-44.206c-4.105-53.12 17.284-101.954 53.503-135.014C109.26 46.42 65.817 111.926 71.517 185.69l3.416 44.206c.182 2.36-.393 4.714-1.642 6.723l-9.1 14.643c-12.412 19.97-19 43.013-19 66.526a6.15 6.15 0 0 0 6.15 6.15h27.973l12.69 73.767c2.167 12.597 13.067 21.818 25.85 21.868l74.58.292c11.87.046 21.47 9.683 21.47 21.554v51.99a10.29 10.29 0 0 0 10.353 10.29l41.526-.25c-2.173-1.886-3.554-4.66-3.554-7.766z" fill="#ffb09e"/><circle cx="242.039" cy="181.247" fill="#fd8087" r="125.936"/><path d="M175.412 181.247c0-59.337 41.057-109.086 96.298-122.42a126.36 126.36 0 0 0-29.671-3.515c-69.552 0-125.936 56.383-125.936 125.936s56.383 125.936 125.936 125.936c10.216 0 20.16-1.224 29.67-3.52-55.24-13.336-96.298-63.08-96.298-122.417z" fill="#fe646f"/><path d="M250.577 247.056l59.366-65.137c15.016-16.475 14.428-41.844-1.334-57.606l-.14-.14c-16.293-16.294-42.7-16.294-59.004 0l-7.45 7.45-7.6-7.57c-16.303-16.237-42.674-16.2-58.944.06-15.843 15.843-16.344 41.37-1.136 57.823l60.246 65.176a10.86 10.86 0 0 0 15.997-.057z" fill="#f9f7f8"/><path d="M389.46 288.328c-3.96-1.194-8.148 1.055-9.342 5.02l-15.9 52.887a7.49 7.49 0 0 0-.318 2.16v154.422a7.5 7.5 0 1 0 15 0V349.5l15.592-51.83a7.5 7.5 0 0 0-5.022-9.342zM237.6 0c-24.587 0-48.322 5.04-70.548 14.98-21.396 9.57-40.36 23.188-56.366 40.48S82.552 92.708 74.66 114.778c-8.2 22.925-11.396 46.98-9.5 71.492l3.415 44.206a3.59 3.59 0 0 1-.534 2.187l-9.1 14.643a133.4 133.4 0 0 0-20.12 70.484c0 7.527 6.123 13.65 13.65 13.65h21.654l11.62 67.538c2.8 16.215 16.757 28.03 33.2 28.097l74.58.3c7.72.03 14 6.335 14 14.055v62.342a7.5 7.5 0 1 0 15 0V441.42c0-15.958-12.982-29-28.94-29.055l-74.58-.3c-9.16-.036-16.934-6.614-18.486-15.64l-12.7-73.767a7.5 7.5 0 0 0-7.392-6.229H53.83a118.39 118.39 0 0 1 17.853-61.217l9.1-14.643a18.52 18.52 0 0 0 2.75-11.262l-3.415-44.205c-3.43-44.376 11.334-86.802 41.57-119.464S193.083 15 237.592 15c53.73 0 102.935 24.73 134.992 67.852s41.566 97.36 26.088 148.815l-9.262 30.8a7.5 7.5 0 1 0 14.363 4.322l9.262-30.8c16.86-56.04 6.503-115.12-28.413-162.085S296.115 0 237.6 0zm106.65 95.467a7.5 7.5 0 0 0-11.484 9.648c17.875 21.274 27.72 48.313 27.72 76.132 0 65.306-53.13 118.436-118.437 118.436s-118.436-53.13-118.436-118.436S176.733 62.8 242.04 62.8c24.463 0 47.946 7.4 67.9 21.4a7.5 7.5 0 0 0 8.611-12.281c-22.5-15.78-48.96-24.12-76.52-24.12-73.576 0-133.436 59.86-133.436 133.436s59.86 133.436 133.436 133.436 133.437-59.86 133.437-133.436c-.001-31.344-11.094-61.8-31.235-85.78zm-99.205 146.537a3.33 3.33 0 0 1-2.47 1.097c-.566 0-1.612-.143-2.477-1.078L219.52 219.77a7.5 7.5 0 1 0-11.016 10.182l20.568 22.253a18.4 18.4 0 0 0 13.48 5.896h.064a18.41 18.41 0 0 0 13.503-5.992l59.365-65.137c17.75-19.477 17.06-49.328-1.573-67.962l-.14-.14c-19.2-19.2-50.417-19.2-69.6 0l-2.158 2.16-2.298-2.3c-19.2-19.112-50.385-19.082-69.54.07-18.765 18.765-19.353 48.73-1.34 68.218l17.72 19.17c2.812 3.04 7.557 3.228 10.6.417a7.5 7.5 0 0 0 .417-10.599l-17.72-19.17c-12.524-13.55-12.115-34.383.932-47.43 13.316-13.317 35.005-13.338 48.348-.05l7.6 7.57c2.93 2.92 7.67 2.914 10.597-.01l7.45-7.45c13.344-13.345 35.056-13.344 48.397 0l.14.14c12.955 12.954 13.436 33.7 1.095 47.25zm207.557-171.25c3.193-2.64 3.644-7.365 1.006-10.56a7.5 7.5 0 0 0-10.559-1.006l-12.147 10.035c-3.193 2.64-3.644 7.365-1.006 10.56a7.48 7.48 0 0 0 5.786 2.724c1.683 0 3.375-.563 4.772-1.718zm-52.04-18.734c.787.262 1.587.387 2.373.387 3.14 0 6.066-1.987 7.114-5.13l5.28-15.844a7.5 7.5 0 1 0-14.23-4.744l-5.28 15.844a7.5 7.5 0 0 0 4.743 9.487zm64.388 58.793h-17.125a7.5 7.5 0 1 0 0 15h17.125a7.5 7.5 0 1 0 0-15z"/></svg>