<svg xmlns="http://www.w3.org/2000/svg" height="512" viewBox="0 0 512.001 512.001" width="512"  xmlns:v="https://vecta.io/nano"><path d="M311.64 54.18c-24.304 0-42.5 10.874-55.042 24.918-.21.21-.404.432-.595.66-12.568-14.36-30.966-25.58-55.644-25.58-43.97 0-78.072 36.346-78.072 83.01 0 85.002 133.716 154.8 133.716 154.8l.595-.018s133.114-70.724 133.114-154.783c0-46.663-34.103-83.01-78.072-83.01z" fill="#ff7d97"/><g fill="#ffdcd5"><path d="M425.048 196.9v-75.437c0-11.212 9.1-20.303 20.303-20.303.106 0 .692.012.706.012 10.886.372 19.597 9.313 19.597 20.3v87.17M86.952 196.9v-75.437c0-11.212-9.1-20.303-20.303-20.303-.106 0-.692.012-.706.012-10.886.372-19.597 9.313-19.597 20.3v87.17"/><path d="M126.257 305.475l-70.48-73.73c-5.173-5.252-7.223-12.413-6.168-19.178a22.28 22.28 0 0 1 6.203-12.278c.068-.068 1.795-1.63 1.8-1.634 8.85-7.205 21.895-6.627 30.065 1.667l71.97 70.917a97.04 97.04 0 0 1 28.93 69.121V458.5h-70.292v-84.177l-81.698-65.9c-16.32-15-26.146-35.945-26.57-58.108L10 248.11l.24-167.9c0-9.96 10.546-17.178 20.967-16.688 10.92.514 19.322 9.92 19.322 20.854v124.24M420.7 268.7l35.524-36.945c5.173-5.252 7.223-12.413 6.168-19.178a22.28 22.28 0 0 0-6.203-12.278c-.068-.068-1.795-1.63-1.8-1.634-8.85-7.205-21.895-6.627-30.065 1.667l-71.97 70.917a97.04 97.04 0 0 0-28.93 69.121V458.5h70.292v-84.177l81.698-65.9c16.32-15 26.146-35.945 26.57-58.108l.018-2.206-.24-167.9c0-9.96-10.547-17.178-20.967-16.688-10.92.514-19.322 9.92-19.322 20.854v124.24"/></g><path d="M400.4 136.5c0-52.154-38.686-93-88.072-93-25.4 0-43.6 10.447-55.635 21.34-12.14-10.974-30.314-21.34-55.647-21.34-49.387 0-88.072 40.854-88.072 93 0 90.028 133.4 160.7 139.1 163.666 1.43.746 3.017 1.135 4.627 1.135l.296-.004.595-.017a10.01 10.01 0 0 0 4.397-1.165c5.65-3.004 138.42-74.57 138.42-163.615zM256.933 280.024c-22.523-12.7-123.958-73.796-123.958-143.523 0-40.94 29.9-73 68.072-73 23.74 0 39.27 12.054 48.12 22.165a10 10 0 0 0 7.525 3.414h.12c2.924-.034 5.688-1.348 7.56-3.594l.053-.063a9.58 9.58 0 0 0 .324-.345c8.782-9.843 24.166-21.576 47.58-21.576 38.17 0 68.072 32.07 68.072 73 .001 68.868-101.095 130.7-123.466 143.523zm59.952-166.25c-11.378 0-20.635 9.256-20.635 20.634v7.896c0 18.36-12.574 33.84-29.563 38.282v-48.12c4.404-1.046 7.68-5.005 7.68-9.73 0-5.522-4.477-10-10-10h-15.36c-5.523 0-10 4.478-10 10 0 4.724 3.277 8.683 7.68 9.73v48.12c-17-4.44-29.563-19.92-29.563-38.282v-7.896c0-11.378-9.257-20.634-20.635-20.634a10 10 0 0 0-10 10c0 5.522 4.477 10 10 10 .35 0 .635.284.635.634v7.896c0 29.436 21.464 53.953 49.563 58.723v28.33c-4.746.78-8.368 4.9-8.368 9.867 0 5.522 4.478 10 10 10h15.36c5.522 0 10.687-5.165 10.687-10.687 0-4.498-3.426-7.846-7.68-8.934V201.03c28.1-4.77 49.563-29.287 49.563-58.723V134.4c0-.35.285-.634.635-.634 5.523 0 10-4.478 10-10s-4.478-10-10-10zm-150.22 150.34L96.952 195.42v-73.96c0-16.7-13.594-30.303-30.304-30.303-.102 0-.54.007-.86.013l-.188.005a30.12 30.12 0 0 0-5.07.61v-7.393c0-16.534-12.674-30.08-28.852-30.843-8.6-.398-17.36 2.808-23.425 8.592C3.086 67.072.24 73.495.24 80.228L.02 250.515c.468 24.5 11.33 48.304 29.8 65.28a9.8 9.8 0 0 0 .488.42l77.976 62.897v79.396c0 5.522 4.478 10 10 10h70.292c5.522 0 10-4.478 10-10v-118.15c-.002-28.47-11.632-56.26-31.913-76.243zM66.224 111.168l.425-.008a10.32 10.32 0 0 1 10.304 10.303v62.554a32.15 32.15 0 0 0-16.423 1.59v-72.434a10.18 10.18 0 0 1 5.694-2.005zm112.353 337.34h-50.292V374.33a10 10 0 0 0-3.722-7.783l-81.438-65.7c-14.328-13.28-22.746-31.75-23.108-50.732L20 248.148l.24-167.92c0-1.248.6-2.464 1.817-3.614 2.118-2.022 5.524-3.242 8.68-3.084 5.4.254 9.792 5.128 9.792 10.864V207.31a33.02 33.02 0 0 0-.802 3.713 32.55 32.55 0 0 0 8.865 27.677l70.434 73.684c3.817 3.992 10.146 4.134 14.14.318a10 10 0 0 0 .318-14.14L62.9 224.728a12.29 12.29 0 0 1-3.411-10.62 12.25 12.25 0 0 1 3.281-6.633l1.322-1.2c4.964-3.903 12.002-3.462 16.46 1.064l.105.105 71.97 70.917c16.5 16.25 25.948 38.846 25.948 61.997v108.15zM511.76 80.23c0-6.733-2.845-13.156-8.012-18.085-6.063-5.783-14.812-9-23.425-8.592-16.18.762-28.853 14.3-28.853 30.843v7.393a30.12 30.12 0 0 0-5.07-.61c-.114-.004-.23-.006-.344-.006h.076l-.78-.012c-16.7 0-30.304 13.594-30.304 30.303v73.96l-69.714 68.694c-20.28 19.982-31.9 47.772-31.9 76.243v118.15c0 5.522 4.477 10 10 10h70.292c5.522 0 10-4.478 10-10v-79.396l77.976-62.897c.167-.135.33-.275.488-.42 18.472-16.977 29.333-40.77 29.8-65.27l.02-2.435-.24-167.86zm-66.474 30.93l.5.008c2.08.084 4.036.774 5.694 2.004v72.433a32.17 32.17 0 0 0-16.423-1.587v-62.555c.001-5.68 4.623-10.303 10.24-10.303zm46.698 138.975c-.362 18.972-8.78 37.44-23.108 50.723l-81.44 65.7a10 10 0 0 0-3.722 7.783v74.177h-50.292V340.36c0-23.15 9.458-45.748 25.948-61.997l72.076-71.022c4.458-4.525 11.498-4.967 16.46-1.064l1.314 1.2c1.763 1.838 2.898 4.13 3.3 6.643.613 3.925-.63 7.795-3.4 10.618l-.084.087-35.523 36.945a10 10 0 0 0 14.416 13.862l35.486-36.906c7.13-7.27 10.45-17.616 8.878-27.688a32.6 32.6 0 0 0-.802-3.714V84.395c0-5.736 4.393-10.6 9.792-10.864 3.153-.153 6.56 1.062 8.68 3.084 1.206 1.15 1.817 2.366 1.817 3.614l.224 169.906zm-93.454 47.5c-1.66-4-5.816-6.506-10.124-6.13-4.13.36-7.693 3.377-8.766 7.373-1.064 3.964.486 8.332 3.838 10.7a10.1 10.1 0 0 0 11.507.093c3.85-2.64 5.308-7.75 3.545-12.048z"/></svg>