<svg xmlns="http://www.w3.org/2000/svg" height="512" viewBox="0 0 502 502" width="512"  xmlns:v="https://vecta.io/nano"><linearGradient id="A" gradientUnits="userSpaceOnUse" x1="251" x2="251" y1="482.496" y2="19.504"><stop offset=".022" stop-color="#8959c3"/><stop offset="1" stop-color="#a27ccf"/></linearGradient><path d="M476.7 19.504h-54.62c-14.764 0-26.4 12.584-25.22 27.3 4.967 61.927 7.18 209.77-80.98 236.66-14.923 4.552-29.963-6.836-29.963-22.438v-159.4c0-24.86 19.45-45.418 44.277-46.71l.435-.022c8.842-.413 16.81-8.07 17.19-16.914.433-10.128-7.65-18.476-17.682-18.476H172.31c-9.802 0-18.077 7.778-18.142 17.58-.063 9.51 7.386 17.384 16.873 17.796l.784.037c24.822 1.295 44.26 21.87 44.26 46.727v159.382c0 15.602-15.04 27-29.963 22.438-88.16-26.9-85.947-174.732-80.98-236.66 1.18-14.717-10.457-27.3-25.22-27.3h-54.62C11.328 19.504 0 30.832 0 44.805v1.323c0 11.228 7.46 20.9 18.172 24.276C28.46 73.636 39.288 81.618 39.288 100.9c0 35.4-26.172 203.642 155.338 215.837 12.06.8 21.458 10.766 21.458 22.852v61.096c0 35.332-33.152 45.347-53.264 48.172-8.35 1.173-14.926 8.1-15.04 16.542a16.87 16.87 0 0 0 16.866 17.099h172.237c9.08 0 16.883-6.977 17.316-16.046.42-8.806-5.96-16.355-14.603-17.537-20.067-2.745-53.682-12.652-53.682-48.23v-61.096c0-12.086 9.4-22.042 21.458-22.852C488.883 304.54 462.71 136.288 462.71 100.9c0-19.28 10.83-27.262 21.116-30.495C494.54 67.038 502 57.355 502 46.128v-1.323c0-13.973-11.328-25.3-25.3-25.3z" fill="url(#A)"/><path d="M401.908 248.404c-4.44-3.318-5.352-9.6-2.033-14.052a93.75 93.75 0 0 0 6.122-9.304c2.767-4.803 8.905-6.457 13.7-3.7a10.04 10.04 0 0 1 3.688 13.711 114.07 114.07 0 0 1-7.436 11.3 10.04 10.04 0 0 1-14.052 2.033zm24.262-44.39a10.04 10.04 0 0 1-7.528-12.038c1.523-6.6 2.63-13.56 3.383-21.254.54-5.52 5.456-9.552 10.97-9.014a10.04 10.04 0 0 1 9.014 10.97c-.837 8.56-2.08 16.35-3.8 23.808-1.245 5.403-6.637 8.773-12.038 7.528z" fill="#d3c1e7"/></svg>