<svg xmlns="http://www.w3.org/2000/svg" xmlns:xlink="http://www.w3.org/1999/xlink" height="682.667" viewBox="-1 0 512 512" width="682.667" xmlns:v="https://vecta.io/nano"><path d="M10.895 512c-2.875 0-5.672-1.137-7.746-3.234C.414 506-.64 501.984.387 498.23l33.285-121.547C12.95 339.21 2.023 296.82 2.04 253.79 2.098 113.848 115.98 0 255.9 0c67.87.027 131.645 26.465 179.578 74.434 47.926 47.973 74.31 111.742 74.29 179.56-.062 139.945-113.945 253.8-253.867 253.8h-.11c-40.87-.016-81.39-9.977-117.47-28.844L13.656 511.645c-.914.238-1.844.355-2.762.355zm0 0" fill="#e5e5e5"/><use xlink:href="#B" fill="#fff"/><path d="M19.344 492.625l33.277-121.52c-20.53-35.562-31.324-75.9-31.312-117.234.05-129.297 105.273-234.488 234.56-234.488 62.75.027 121.645 24.45 165.922 68.773 44.29 44.324 68.664 103.242 68.64 165.898-.055 129.3-105.28 234.504-234.55 234.504h-.105c-39.254-.016-77.828-9.867-112.086-28.54zm0 0" fill="#64b161"/><g fill="#fff"><use xlink:href="#B"/><path d="M195.184 152.246c-4.547-10.11-9.336-10.312-13.664-10.488-3.54-.152-7.6-.145-11.633-.145s-10.625 1.523-16.187 7.598-21.254 20.762-21.254 50.633 21.758 58.738 24.793 62.793 42 67.31 103.707 91.645c51.285 20.227 61.72 16.203 72.852 15.19s35.918-14.687 40.977-28.863 5.063-26.324 3.543-28.867c-1.52-2.527-5.566-4.047-11.637-7.082s-35.918-17.727-41.484-19.75-9.613-3.035-13.66 3.043c-4.05 6.07-15.676 19.742-19.22 23.79-3.543 4.06-7.086 4.566-13.156 1.527s-25.625-9.45-48.82-30.133c-18.047-16.1-30.234-35.965-33.777-42.043-3.54-6.07-.06-9.07 2.668-12.387 4.9-5.973 13.148-16.71 15.172-20.758 2.023-4.055 1.012-7.598-.504-10.637s-13.32-33.06-18.715-45.066zm0 0" fill-rule="evenodd"/></g><defs ><path id="B" d="M10.895 501.105l34.47-125.87c-21.262-36.84-32.445-78.63-32.43-121.44C12.988 119.86 121.98 10.895 255.9 10.895c64.992.027 125.996 25.324 171.87 71.238s71.125 106.945 71.102 171.855c-.06 133.93-109.066 242.9-242.973 242.9h-.105c-40.664-.016-80.617-10.215-116.105-29.57zm134.77-77.75l7.38 4.37c31 18.398 66.543 28.13 102.79 28.148h.078c111.305 0 201.898-90.578 201.945-201.902.02-53.95-20.965-104.68-59.094-142.84s-88.832-59.187-142.777-59.21C144.6 51.922 54 142.488 53.957 253.81c-.016 38.148 10.656 75.297 30.875 107.445l4.805 7.64-20.406 74.5zm0 0"/></defs></svg>